<?xml version="1.0" encoding="UTF-8" standalone="no"?>
<!-- Created with Inkscape (http://www.inkscape.org/) -->

<svg
   width="120"
   height="120"
   viewBox="0 0 120 120"
   version="1.1"
   id="svg5"
   xml:space="preserve"
   inkscape:version="1.2.2 (b0a8486541, 2022-12-01)"
   sodipodi:docname="patc.svg"
   xmlns:inkscape="http://www.inkscape.org/namespaces/inkscape"
   xmlns:sodipodi="http://sodipodi.sourceforge.net/DTD/sodipodi-0.dtd"
   xmlns="http://www.w3.org/2000/svg"
   xmlns:svg="http://www.w3.org/2000/svg"><sodipodi:namedview
     id="namedview7"
     pagecolor="#ffffff"
     bordercolor="#000000"
     borderopacity="0.25"
     inkscape:showpageshadow="2"
     inkscape:pageopacity="0.0"
     inkscape:pagecheckerboard="0"
     inkscape:deskcolor="#d1d1d1"
     inkscape:document-units="px"
     showgrid="false"
     inkscape:zoom="2.0713333"
     inkscape:cx="-36.208562"
     inkscape:cy="88.590281"
     inkscape:window-width="1362"
     inkscape:window-height="706"
     inkscape:window-x="0"
     inkscape:window-y="0"
     inkscape:window-maximized="1"
     inkscape:current-layer="g1217"
     showguides="true"><sodipodi:guide
       position="53.105891,-0.21242549"
       orientation="0,-1"
       id="guide305"
       inkscape:locked="false" /></sodipodi:namedview><defs
     id="defs2"><linearGradient
       id="swatch6"
       inkscape:swatch="solid"><stop
         style="stop-color:#000000;stop-opacity:1;"
         offset="0"
         id="stop6" /></linearGradient></defs><g
     inkscape:label="Capa 1"
     inkscape:groupmode="layer"
     id="layer1"><g
       paint-order="stroke markers fill"
       transform="matrix(6.5417587,0,0,7.1035102,3.4736863,-1987.2738)"
       id="g463"><g
         inkscape:label="Capa 1"
         id="layer1-5"
         transform="matrix(0.02848583,0,0,0.02848583,-65.084113,288.42536)"><g
           inkscape:label="Capa 1"
           id="g1217"
           transform="matrix(4.2595232,0,0,3.7910984,-2833.4593,-7670.3943)"
           inkscape:export-filename="./g1217.svg"
           inkscape:export-xdpi="8.5328121"
           inkscape:export-ydpi="8.5328121"><path
             style="fill:#c5e256;fill-opacity:1;fill-rule:nonzero;stroke:none;stroke-width:0.922917"
             d="m 1247.6811,2047.2281 c 0,2.9129 -2.3613,5.2779 -5.2779,5.2779 -2.9165,0 -5.2816,-2.365 -5.2816,-5.2779 0,-2.9166 2.3651,-5.2816 5.2816,-5.2816 2.9166,0 5.2779,2.365 5.2779,5.2816"
             id="path1185"
             inkscape:export-filename="cuerd.svg"
             inkscape:export-xdpi="8.5328121"
             inkscape:export-ydpi="8.5328121" /><path
             style="fill:#c5e256;fill-opacity:1;fill-rule:nonzero;stroke:none;stroke-width:0.922917"
             d="m 1226.5586,1999.7196 c -10.5595,0 -10.5595,10.5594 -10.5595,10.5594 v 21.1117 c 0,0 0,10.5594 10.5595,10.5594 z m 0,0"
             id="path1187" /><path
             style="fill:#ffffff;fill-opacity:1;fill-rule:nonzero;stroke:none;stroke-width:0.922917"
             d="m 1226.5586,1999.7196 h 85.2652 c 2.2711,0 4.456,0.8904 6.0818,2.4803 l 3.7061,3.6268 0.7247,-5.7538 c 0.3461,-4.849 3.6375,-8.984 8.2881,-10.408 l 9.5825,-2.9311 c 1.8134,-0.5551 3.8178,-0.012 5.0111,1.4674 0.2812,0.3533 0.4795,0.6885 0.5011,0.9625 4.7336,59.4271 -76.912,52.7864 -119.1606,52.7864 z m 0,0"
             id="path1189" /><path
             style="fill:#c5e256;fill-opacity:1;fill-rule:nonzero;stroke:none;stroke-width:0.922917"
             d="m 1289.9297,1999.7196 c -8.2089,-1.0132 -11.0785,-10.5559 -31.6855,-10.5559 -20.607,0 -21.1226,10.5559 -21.1226,10.5559 z m 0,0"
             id="path1191" /><path
             style="fill:#c5e256;fill-opacity:1;fill-rule:nonzero;stroke:none;stroke-width:0.922917"
             d="m 1213.2521,2015.456 h 2.747 v 10.7577 h -2.747 z m 0,0"
             id="path1193" /><path
             style="fill:#c5e256;fill-opacity:1;fill-rule:nonzero;stroke:none;stroke-width:0.922917"
             d="m 1211.8821,2041.9465 c 0.757,0 1.3736,-0.6128 1.3736,-1.3699 v -39.4834 c 0,-0.7572 -0.6166,-1.3736 -1.3736,-1.3736 -0.7571,0 -1.3736,0.6164 -1.3736,1.3736 v 39.4834 c 0,0.7571 0.6165,1.3699 1.3736,1.3699"
             id="path1195" /><path
             style="fill:#c5e256;fill-opacity:1;fill-rule:nonzero;stroke:none;stroke-width:0.922917"
             d="m 1284.6482,2031.3907 h -42.245 c -2.9165,0 -5.2816,-2.3613 -5.2816,-5.278 0,-2.9164 2.3651,-5.2779 5.2816,-5.2779 h 42.245 c 2.9166,0 5.2815,2.3615 5.2815,5.2779 0,2.9167 -2.3649,5.278 -5.2815,5.278"
             id="path1197" /><path
             style="fill:#c5e256;fill-opacity:1;fill-rule:nonzero;stroke:none;stroke-width:0.922917"
             d="m 1210.5085,2001.0932 h 2.7436 v 3.1652 h -2.7436 z m 0,0"
             id="path1199" /><path
             style="fill:#c5e256;fill-opacity:1;fill-rule:nonzero;stroke:none;stroke-width:0.922917"
             d="m 1210.5085,2037.4112 h 2.7436 v 3.1654 h -2.7436 z m 0,0"
             id="path1201" /></g><rect
           style="fill:none;stroke:#000000;stroke-width:0.264583;stroke-opacity:0"
           id="rect798"
           width="653.92346"
           height="34.265957"
           x="2245.6624"
           y="235.07547" /><rect
           style="fill:none;stroke:#000000;stroke-width:0.264583;stroke-opacity:0"
           id="rect964"
           width="463.76151"
           height="49.636105"
           x="2245.6624"
           y="235.07547" /></g><rect
         width="2.2019925"
         height="4.4872432"
         x="12.463839"
         y="285.4296"
         fill="#ffffff"
         ry="0"
         id="rect459"
         style="fill:#2dd69c;fill-opacity:1;stroke-width:1.53397" /><path
         fill="#ffffff"
         d="m 10.62815,289.91682 h 5.873366 l -2.93599,3.58845 z"
         id="path461"
         style="fill:#2dd69c;fill-opacity:1;stroke-width:1.53397" /></g></g></svg>
