<?xml version="1.0" encoding="UTF-8" standalone="no"?>
<svg
   id="svg2"
   version="1.1"
   inkscape:version="1.2.2 (b0a8486541, 2022-12-01)"
   width="48"
   height="48"
   sodipodi:docname="chromium.svg"
   viewBox="0 0 48 48"
   xmlns:inkscape="http://www.inkscape.org/namespaces/inkscape"
   xmlns:sodipodi="http://sodipodi.sourceforge.net/DTD/sodipodi-0.dtd"
   xmlns="http://www.w3.org/2000/svg"
   xmlns:svg="http://www.w3.org/2000/svg"
   xmlns:rdf="http://www.w3.org/1999/02/22-rdf-syntax-ns#"
   xmlns:cc="http://creativecommons.org/ns#"
   xmlns:dc="http://purl.org/dc/elements/1.1/">
  <metadata
     id="metadata8">
    <rdf:RDF>
      <cc:Work
         rdf:about="">
        <dc:format>image/svg+xml</dc:format>
        <dc:type
           rdf:resource="http://purl.org/dc/dcmitype/StillImage" />
      </cc:Work>
    </rdf:RDF>
  </metadata>
  <defs
     id="defs6">
    <clipPath
       id="clipPath3947"
       clipPathUnits="userSpaceOnUse">
      <ellipse
         ry="212.23589"
         rx="203.24309"
         cy="256.47083"
         cx="256.52075"
         id="ellipse3949"
         style="opacity:1;fill:#ffc82d;fill-opacity:1;stroke:none;stroke-width:0;stroke-linecap:butt;stroke-linejoin:miter;stroke-miterlimit:4;stroke-dasharray:none;stroke-dashoffset:0;stroke-opacity:1" />
    </clipPath>
    <clipPath
       id="clipPath4806"
       clipPathUnits="userSpaceOnUse">
      <circle
         r="211.62711"
         cy="248.91539"
         cx="249.4608"
         id="circle4808"
         style="opacity:1;fill:#f6c439;fill-opacity:1;stroke:none;stroke-width:0;stroke-linecap:butt;stroke-linejoin:miter;stroke-miterlimit:4;stroke-dasharray:none;stroke-dashoffset:0;stroke-opacity:1" />
    </clipPath>
    <clipPath
       id="clipPath4837"
       clipPathUnits="userSpaceOnUse">
      <circle
         r="207.13615"
         cy="256"
         cx="256"
         id="circle4839"
         style="opacity:1;fill:#0fa15f;fill-opacity:1;stroke:none;stroke-width:0;stroke-linecap:butt;stroke-linejoin:miter;stroke-miterlimit:4;stroke-dasharray:none;stroke-dashoffset:0;stroke-opacity:1" />
    </clipPath>
    <clipPath
       id="clipPath5050"
       clipPathUnits="userSpaceOnUse">
      <path
         inkscape:connector-curvature="0"
         id="path5052"
         d="M 255.99999,45.26758 A 210.73167,210.73167 0 0 0 45.267565,256 210.73167,210.73167 0 0 0 255.99999,466.73242 210.73167,210.73167 0 0 0 466.73244,256 210.73167,210.73167 0 0 0 255.99999,45.26758 Z m 0,111.84375 A 98.888542,98.888542 0 0 1 354.88866,256 98.888542,98.888542 0 0 1 255.99999,354.88867 98.888542,98.888542 0 0 1 157.11132,256 98.888542,98.888542 0 0 1 255.99999,157.11133 Z"
         style="opacity:1;fill:#f9f9f9;fill-opacity:1;stroke:none;stroke-width:0;stroke-linecap:butt;stroke-linejoin:miter;stroke-miterlimit:4;stroke-dasharray:none;stroke-dashoffset:0;stroke-opacity:1" />
    </clipPath>
    <clipPath
       id="clipPath5127"
       clipPathUnits="userSpaceOnUse">
      <path
         inkscape:connector-curvature="0"
         id="path5129"
         d="M 255.99999,45.26758 A 210.73167,210.73167 0 0 0 45.26756,256 210.73167,210.73167 0 0 0 255.99999,466.73242 210.73167,210.73167 0 0 0 466.73244,256 210.73167,210.73167 0 0 0 255.99999,45.26758 Z m 0,111.84375 A 98.888542,98.888542 0 0 1 354.88864,256 98.888542,98.888542 0 0 1 255.99999,354.88867 98.888542,98.888542 0 0 1 157.11132,256 98.888542,98.888542 0 0 1 255.99999,157.11133 Z"
         style="opacity:1;fill:#f9f9f9;fill-opacity:1;stroke:none;stroke-width:0;stroke-linecap:butt;stroke-linejoin:miter;stroke-miterlimit:4;stroke-dasharray:none;stroke-dashoffset:0;stroke-opacity:1" />
    </clipPath>
  </defs>
  <sodipodi:namedview
     pagecolor="#ffffff"
     bordercolor="#666666"
     borderopacity="1"
     objecttolerance="10"
     gridtolerance="10"
     guidetolerance="10"
     inkscape:pageopacity="0"
     inkscape:pageshadow="2"
     inkscape:window-width="1362"
     inkscape:window-height="706"
     id="namedview4"
     showgrid="false"
     inkscape:zoom="4.32975"
     inkscape:cx="52.312489"
     inkscape:cy="46.538484"
     inkscape:window-x="0"
     inkscape:window-y="0"
     inkscape:window-maximized="1"
     inkscape:current-layer="svg2"
     inkscape:document-units="px"
     inkscape:document-rotation="0"
     inkscape:pagecheckerboard="0"
     inkscape:showpageshadow="2"
     inkscape:deskcolor="#d1d1d1" />
  <path
     style="opacity:1;fill:#91b0e8;fill-opacity:1;stroke:none;stroke-width:0;stroke-linecap:butt;stroke-linejoin:miter;stroke-miterlimit:4;stroke-dasharray:none;stroke-dashoffset:0;stroke-opacity:1"
     d="m 43.279135,13.925233 c -30.332056,24.232673 -15.166029,12.116337 0,0 z m 0,0 -17.532427,0.0068 c 4.82784,0.791758 8.511765,4.982522 8.51181,10.034415 -0.0035,2.484527 -0.916503,4.881805 -2.566509,6.739319 l -8.695061,14.889229 c 0.361734,0.01796 0.725682,0.0273 1.091876,0.0273 11.960219,4.2e-5 21.655903,-9.695641 21.655861,-21.65586 1.4e-5,-3.624251 -0.891728,-7.03964 -2.46555,-10.041238 z"
     id="path4797"
     inkscape:connector-curvature="0"
     sodipodi:nodetypes="cccccccssc" />
  <path
     style="fill:#396bd7;fill-opacity:1;stroke-width:0.11459"
     clip-path="none"
     d="M 24.088824,2.3106101 C 16.303028,2.3105824 9.4779615,6.4200237 5.6614203,12.587485 l 8.4507937,13.308837 c 0.0392,0.63343 -0.19262,-1.88435 -0.193086,-1.92985 5e-5,-5.616547 4.553149,-10.169645 10.169696,-10.169695 0.527309,0.0042 1.616297,0.110525 2.136593,0.196352 l 17.053718,-0.0679 C 39.65926,7.021404 32.424791,2.3105802 24.088824,2.3106101 Z M 5.6588111,12.591699 c -5.25184008,25.121696 -2.6259195,12.56085 0,0 z"
     id="path3923"
     inkscape:connector-curvature="0"
     sodipodi:nodetypes="sccccccscc" />
  <path
     style="fill:#6199f6;fill-opacity:1;stroke-width:0.11459"
     clip-path="none"
     d="M 5.6614203,12.587485 C 3.6151482,15.894224 2.4329469,19.79205 2.4329623,23.966472 2.4329212,35.560498 11.5441,45.026288 22.996948,45.595036 l 8.695061,-14.889245 c -1.927305,2.178019 -4.694876,3.426681 -7.603185,3.430375 -4.869327,-0.004 -9.052549,-3.459001 -9.97661,-8.239844 z"
     id="path3923-1"
     inkscape:connector-curvature="0"
     sodipodi:nodetypes="csccccc" />
  <circle
     style="opacity:1;fill:#ffffff;fill-opacity:1;stroke:none;stroke-width:0;stroke-linecap:butt;stroke-linejoin:miter;stroke-miterlimit:4;stroke-dasharray:none;stroke-dashoffset:0;stroke-opacity:1"
     id="path4162"
     cx="24.088823"
     cy="23.966469"
     r="10.169784" />
  <ellipse
     style="opacity:1;fill:#4688f4;fill-opacity:1;stroke:none;stroke-width:0;stroke-linecap:butt;stroke-linejoin:miter;stroke-miterlimit:4;stroke-dasharray:none;stroke-dashoffset:0;stroke-opacity:1"
     id="path3956"
     cx="24.088823"
     cy="23.966469"
     clip-path="none"
     rx="8.3916636"
     ry="8.3916626" />
  <path
     inkscape:connector-curvature="0"
     style="opacity:0.1;fill:#367100;fill-opacity:1;stroke:none;stroke-width:0;stroke-linecap:butt;stroke-linejoin:miter;stroke-miterlimit:4;stroke-dasharray:none;stroke-dashoffset:0;stroke-opacity:1"
     d="m 76.519531,145.27539 82.558589,129.43945 31.16747,-34.48226 z m 366.238279,12.96484 -165.96669,0.70953 16.34175,37.87768 149.62494,-38.58717 z m -167.4029,150.67233 -29.98186,157.57377 84.55468,-144.8086 z"
     id="rect5020-5-5"
     clip-path="url(#clipPath5127)"
     transform="matrix(0.10276474,0,0,0.10276473,-2.2189486,-2.3413005)"
     sodipodi:nodetypes="ccccccccccccc" />
</svg>
