<?xml version="1.0" encoding="UTF-8" standalone="no"?>
<svg
   width="48"
   height="48"
   viewBox="0 0 48 48"
   version="1.1"
   id="svg147"
   sodipodi:docname="duckstation.svg"
   inkscape:version="1.2.2 (b0a8486541, 2022-12-01)"
   xmlns:inkscape="http://www.inkscape.org/namespaces/inkscape"
   xmlns:sodipodi="http://sodipodi.sourceforge.net/DTD/sodipodi-0.dtd"
   xmlns:xlink="http://www.w3.org/1999/xlink"
   xmlns="http://www.w3.org/2000/svg"
   xmlns:svg="http://www.w3.org/2000/svg">
  <sodipodi:namedview
     id="namedview149"
     pagecolor="#ffffff"
     bordercolor="#000000"
     borderopacity="0.25"
     inkscape:showpageshadow="2"
     inkscape:pageopacity="0.0"
     inkscape:pagecheckerboard="0"
     inkscape:deskcolor="#d1d1d1"
     showgrid="false"
     inkscape:zoom="4.4765625"
     inkscape:cx="38.422339"
     inkscape:cy="38.310646"
     inkscape:window-width="1362"
     inkscape:window-height="706"
     inkscape:window-x="0"
     inkscape:window-y="28"
     inkscape:window-maximized="1"
     inkscape:current-layer="svg147" />
  <defs
     id="defs82">
    <filter
       id="alpha"
       filterUnits="objectBoundingBox"
       x="0"
       y="0"
       width="1"
       height="1">
      <feColorMatrix
         type="matrix"
         in="SourceGraphic"
         values="0 0 0 0 1 0 0 0 0 1 0 0 0 0 1 0 0 0 1 0"
         id="feColorMatrix2" />
    </filter>
    <mask
       id="mask0">
      <g
         filter="url(#alpha)"
         id="g7">
        <rect
           x="0"
           y="0"
           width="512"
           height="512"
           style="fill:#000000;fill-opacity:0.2;stroke:none"
           id="rect5" />
      </g>
    </mask>
    <clipPath
       id="clip1">
      <rect
         x="0"
         y="0"
         width="512"
         height="512"
         id="rect10" />
    </clipPath>
    <g
       id="surface5"
       clip-path="url(#clip1)">
      <path
         style="fill:#000000;fill-opacity:1;fill-rule:nonzero;stroke:none"
         d="M 272.0625,288 248,301.875 v 105.40625 l 24.0625,13.9375 24.0625,13.875 24.0625,-13.875 v -27.125 L 296.125,380.1875 V 301.875 Z m -80,52.90625 L 168,354.78125 V 460.1875 L 192.0625,474.125 216.125,488 240.1875,474.125 v -27.09375 l -24.0625,-13.9375 v -78.3125 z m 0,0"
         id="path13" />
    </g>
    <mask
       id="mask1">
      <g
         filter="url(#alpha)"
         id="g18">
        <rect
           x="0"
           y="0"
           width="512"
           height="512"
           style="fill:#000000;fill-opacity:0.2;stroke:none"
           id="rect16" />
      </g>
    </mask>
    <clipPath
       id="clip2">
      <rect
         x="0"
         y="0"
         width="512"
         height="512"
         id="rect21" />
    </clipPath>
    <g
       id="surface8"
       clip-path="url(#clip2)">
      <path
         style="fill:#000000;fill-opacity:1;fill-rule:nonzero;stroke:none"
         d="m 200,108.28516 128,73.89843 V 329.98828 L 200,403.88672 72,329.98828 V 182.18359 Z m 0,0"
         id="path24" />
    </g>
    <mask
       id="mask2">
      <g
         filter="url(#alpha)"
         id="g29">
        <rect
           x="0"
           y="0"
           width="512"
           height="512"
           style="fill:#000000;fill-opacity:0.2;stroke:none"
           id="rect27" />
      </g>
    </mask>
    <clipPath
       id="clip3">
      <rect
         x="0"
         y="0"
         width="512"
         height="512"
         id="rect32" />
    </clipPath>
    <g
       id="surface11"
       clip-path="url(#clip3)">
      <path
         style="fill:#000000;fill-opacity:1;fill-rule:nonzero;stroke:none"
         d="M 280,52.066406 392,116.73047 V 246.05859 L 280,310.71875 168,246.05859 V 116.73047 Z m 0,0"
         id="path35" />
    </g>
    <mask
       id="mask3">
      <g
         filter="url(#alpha)"
         id="g40">
        <rect
           x="0"
           y="0"
           width="512"
           height="512"
           style="fill:#000000;fill-opacity:0.2;stroke:none"
           id="rect38" />
      </g>
    </mask>
    <clipPath
       id="clip4">
      <rect
         x="0"
         y="0"
         width="512"
         height="512"
         id="rect43" />
    </clipPath>
    <g
       id="surface14"
       clip-path="url(#clip4)">
      <path
         style="fill:#000000;fill-opacity:1;fill-rule:nonzero;stroke:none"
         d="M 368,236.71875 304,247.375 v 21.34375 l 64,32 64,-32 V 247.375 Z m 0,0"
         id="path46" />
    </g>
    <mask
       id="mask4">
      <g
         filter="url(#alpha)"
         id="g51">
        <rect
           x="0"
           y="0"
           width="512"
           height="512"
           style="fill:#000000;fill-opacity:0.2;stroke:none"
           id="rect49" />
      </g>
    </mask>
    <clipPath
       id="clip5">
      <rect
         x="0"
         y="0"
         width="512"
         height="512"
         id="rect54" />
    </clipPath>
    <g
       id="surface17"
       clip-path="url(#clip5)">
      <path
         style="fill:#000000;fill-opacity:1;fill-rule:nonzero;stroke:none"
         d="m 112,66.582031 40,23.097657 V 135.86719 L 112,158.96094 72,135.86719 V 89.679688 Z m 0,0"
         id="path57" />
    </g>
    <mask
       id="mask5">
      <g
         filter="url(#alpha)"
         id="g62">
        <rect
           x="0"
           y="0"
           width="512"
           height="512"
           style="fill:#000000;fill-opacity:0.2;stroke:none"
           id="rect60" />
      </g>
    </mask>
    <clipPath
       id="clip6">
      <rect
         x="0"
         y="0"
         width="512"
         height="512"
         id="rect65" />
    </clipPath>
    <g
       id="surface20"
       clip-path="url(#clip6)">
      <path
         style="fill:#ffffff;fill-opacity:1;fill-rule:nonzero;stroke:none"
         d="m 280,36.0625 -112,64.65625 6.92187,4 L 280,44.0625 l 105.07812,60.65625 6.92188,-4 z m 0,0"
         id="path68" />
    </g>
    <mask
       id="mask6">
      <g
         filter="url(#alpha)"
         id="g73">
        <rect
           x="0"
           y="0"
           width="512"
           height="512"
           style="fill:#000000;fill-opacity:0.2;stroke:none"
           id="rect71" />
      </g>
    </mask>
    <clipPath
       id="clip7">
      <rect
         x="0"
         y="0"
         width="512"
         height="512"
         id="rect76" />
    </clipPath>
    <g
       id="surface23"
       clip-path="url(#clip7)">
      <path
         style="fill:#ffffff;fill-opacity:1;fill-rule:nonzero;stroke:none"
         d="m 112,58.59375 -40,23.078125 6.921875,4 L 112,66.59375 l 33.07812,19.078125 6.92188,-4 z m 0,0"
         id="path79" />
    </g>
  </defs>
  <g
     id="surface1"
     transform="matrix(0.1019139,0,0,0.1019139,-1.4405021,-2.5573162)">
    <use
       xlink:href="#surface5"
       mask="url(#mask0)"
       id="use84" />
    <path
       style="fill:#b82b00;fill-opacity:1;fill-rule:nonzero;stroke:none"
       d="M 272.0625,358.31641 248,372.20312 v 27.08985 l 24.0625,13.91015 24.06641,13.89063 24.0625,-13.89063 v -27.08593 l -24.0625,-13.91407 z m 0,0"
       id="path86" />
    <path
       style="fill:#ff7800;fill-opacity:1;fill-rule:nonzero;stroke:none"
       d="M 272.0625,358.30859 248,372.19531 l 24.0625,13.91406 24.06641,13.88672 24.0625,-13.88672 -24.0625,-13.91406 z m 0,0"
       id="path88" />
    <path
       style="fill:#ff3f00;fill-opacity:1;fill-rule:nonzero;stroke:none"
       d="m 272.0625,279.98437 24.06641,13.89454 v 78.32421 L 272.0625,386.09766 248,372.20312 v -78.32421 z m 0,0"
       id="path90" />
    <path
       style="fill:#ff3f00;fill-opacity:1;fill-rule:nonzero;stroke:none"
       d="m 296.12891,427.09375 24.0625,-13.89063 v -27.09375 l -24.0625,13.88672 z m 0,0"
       id="path92" />
    <path
       style="fill:#b82b00;fill-opacity:1;fill-rule:nonzero;stroke:none"
       d="M 272.0625,279.98437 V 386.09766 L 248,372.20312 v -78.32421 z m 0,0"
       id="path94" />
    <path
       style="fill:#b82b00;fill-opacity:1;fill-rule:nonzero;stroke:none"
       d="M 192.0625,411.22266 168,425.10937 v 27.08985 l 24.0625,13.91406 24.06641,13.88672 24.0625,-13.88672 v -27.08984 l -24.0625,-13.91407 z m 0,0"
       id="path96" />
    <path
       style="fill:#ff3f00;fill-opacity:1;fill-rule:nonzero;stroke:none"
       d="m 216.12891,480 24.0625,-13.88672 v -27.09766 l -24.0625,13.89063 z m 0,0"
       id="path98" />
    <path
       style="fill:#ff7800;fill-opacity:1;fill-rule:nonzero;stroke:none"
       d="M 192.0625,411.21484 168,425.10547 l 24.0625,13.91015 24.06641,13.89063 24.0625,-13.89063 -24.0625,-13.91015 z m 0,0"
       id="path100" />
    <path
       style="fill:#ff3f00;fill-opacity:1;fill-rule:nonzero;stroke:none"
       d="m 192.0625,332.89453 24.06641,13.89063 v 78.32421 L 192.0625,439.00391 168,425.10937 v -78.32421 z m 0,0"
       id="path102" />
    <path
       style="fill:#b82b00;fill-opacity:1;fill-rule:nonzero;stroke:none"
       d="M 192.0625,332.89453 V 439.00391 L 168,425.10937 v -78.32421 z m 0,0"
       id="path104" />
    <use
       xlink:href="#surface8"
       mask="url(#mask1)"
       id="use106" />
    <path
       style="fill:#ffcc00;fill-opacity:1;fill-rule:nonzero;stroke:none"
       d="m 200,100.28516 128,73.89843 V 321.98828 L 200,395.88672 72,321.98828 V 174.18359 Z m 0,0"
       id="path108" />
    <path
       style="fill:#ff6600;fill-opacity:1;fill-rule:nonzero;stroke:none"
       d="m 72,174.17578 v 147.8125 l 128,73.89844 V 248.09375 Z m 0,0"
       id="path110" />
    <path
       style="fill:#ffc200;fill-opacity:1;fill-rule:nonzero;stroke:none"
       d="m 200,100.28125 -128,73.89453 128,73.91797 128,-73.91797 z m 0,0"
       id="path112" />
    <use
       xlink:href="#surface11"
       mask="url(#mask2)"
       id="use114" />
    <path
       style="fill:#ff9c00;fill-opacity:1;fill-rule:nonzero;stroke:none"
       d="M 280,36.066406 392,100.73047 V 230.05469 L 280,294.71875 168,230.05469 V 100.73047 Z m 0,0"
       id="path116" />
    <path
       style="fill:#3d3d3d;fill-opacity:1;fill-rule:nonzero;stroke:none"
       d="m 296,193.96875 24,-14.39844 v 32.39844 l -24,14.40234 z m 0,0"
       id="path118" />
    <path
       style="fill:#ff6600;fill-opacity:1;fill-rule:nonzero;stroke:none"
       d="m 168,100.71875 v 129.32422 l 112,64.6875 V 165.38281 Z m 0,0"
       id="path120" />
    <path
       style="fill:#ffc200;fill-opacity:1;fill-rule:nonzero;stroke:none"
       d="m 280,36.058594 -112,64.660156 112,64.66406 112,-64.66406 z m 0,0"
       id="path122" />
    <path
       style="fill:#3d3d3d;fill-opacity:1;fill-rule:nonzero;stroke:none"
       d="m 352,164 24,-14.39844 V 182 l -24,14.39844 z m 0,0"
       id="path124" />
    <use
       xlink:href="#surface14"
       mask="url(#mask3)"
       id="use126" />
    <path
       style="fill:#b82b00;fill-opacity:1;fill-rule:nonzero;stroke:none"
       d="m 368,228.70312 v 64 l -64,-32 v -21.33203 z m 0,0"
       id="path128" />
    <path
       style="fill:#ff7800;fill-opacity:1;fill-rule:nonzero;stroke:none"
       d="m 368,228.70312 v 64 l 64,-32 v -21.33203 z m 0,0"
       id="path130" />
    <path
       style="fill:#ff3f00;fill-opacity:1;fill-rule:nonzero;stroke:none"
       d="m 368.00391,207.39844 63.99609,32 -63.99609,32 -64,-32 z m 0,0"
       id="path132" />
    <use
       xlink:href="#surface17"
       mask="url(#mask4)"
       id="use134" />
    <path
       style="fill:#ff9c00;fill-opacity:1;fill-rule:nonzero;stroke:none"
       d="m 112,58.582031 40,23.097657 V 127.86719 L 112,150.96094 72,127.86719 V 81.679688 Z m 0,0"
       id="path136" />
    <path
       style="fill:#ff6600;fill-opacity:1;fill-rule:nonzero;stroke:none"
       d="m 72,81.675781 v 46.191409 l 40,23.08593 c 0,0.008 0,-46.17187 0,-46.17187 z m 0,0"
       id="path138" />
    <path
       style="fill:#ffc200;fill-opacity:1;fill-rule:nonzero;stroke:none"
       d="m 112,58.589844 -40,23.085937 40,23.105469 40,-23.105469 z m 0,0"
       id="path140" />
    <use
       xlink:href="#surface20"
       mask="url(#mask5)"
       id="use142" />
    <use
       xlink:href="#surface23"
       mask="url(#mask6)"
       id="use144" />
  </g>
</svg>
