<?xml version="1.0" encoding="UTF-8" standalone="no"?>
<svg
   width="48"
   height="48"
   version="1.0"
   class="mozwebext"
   id="svg71"
   sodipodi:docname="evince.svg"
   inkscape:version="1.2.2 (b0a8486541, 2022-12-01)"
   xmlns:inkscape="http://www.inkscape.org/namespaces/inkscape"
   xmlns:sodipodi="http://sodipodi.sourceforge.net/DTD/sodipodi-0.dtd"
   xmlns:xlink="http://www.w3.org/1999/xlink"
   xmlns="http://www.w3.org/2000/svg"
   xmlns:svg="http://www.w3.org/2000/svg">
  <sodipodi:namedview
     id="namedview73"
     pagecolor="#ffffff"
     bordercolor="#000000"
     borderopacity="0.25"
     inkscape:showpageshadow="2"
     inkscape:pageopacity="0.0"
     inkscape:pagecheckerboard="0"
     inkscape:deskcolor="#d1d1d1"
     showgrid="false"
     inkscape:zoom="8.953125"
     inkscape:cx="33.5637"
     inkscape:cy="28.760908"
     inkscape:window-width="1362"
     inkscape:window-height="706"
     inkscape:window-x="0"
     inkscape:window-y="0"
     inkscape:window-maximized="1"
     inkscape:current-layer="svg71" />
  <defs
     id="defs31">
    <linearGradient
       id="a">
      <stop
         offset="0"
         stop-color="#d5d3cf"
         id="stop2" />
      <stop
         offset="1"
         stop-color="#f6f5f4"
         id="stop4" />
    </linearGradient>
    <linearGradient
       id="b">
      <stop
         offset="0"
         stop-color="#d5d3cf"
         id="stop7" />
      <stop
         offset="1"
         stop-color="#949390"
         id="stop9" />
    </linearGradient>
    <linearGradient
       id="c">
      <stop
         offset="0"
         stop-color="#9a9996"
         id="stop12" />
      <stop
         offset="1"
         stop-color="#77767b"
         id="stop14" />
    </linearGradient>
    <linearGradient
       xlink:href="#d"
       id="e"
       x1="28"
       y1="-274"
       x2="116"
       y2="-274"
       gradientUnits="userSpaceOnUse"
       gradientTransform="translate(-136)" />
    <linearGradient
       id="d">
      <stop
         offset="0"
         stop-color="#c0bfbc"
         id="stop18" />
      <stop
         offset=".045"
         stop-color="#f6f5f4"
         id="stop20" />
      <stop
         offset=".091"
         stop-color="#deddda"
         id="stop22" />
      <stop
         offset=".909"
         stop-color="#deddda"
         id="stop24" />
      <stop
         offset=".955"
         stop-color="#f6f5f4"
         id="stop26" />
      <stop
         offset="1"
         stop-color="#c0bfbc"
         id="stop28" />
    </linearGradient>
  </defs>
  <g
     transform="matrix(0.34642687,0,0,0.34642687,2.94016,-58.349076)"
     id="g69">
    <rect
       y="233"
       x="20"
       height="59"
       width="88"
       rx="8"
       fill="#deddda"
       id="rect33" />
    <rect
       ry="8"
       rx="8"
       y="-292"
       x="-108"
       height="40"
       width="88"
       style="fill:url(#e);marker:none"
       transform="scale(-1)"
       fill="url(#e)"
       id="rect35" />
    <rect
       width="88"
       height="104"
       x="20"
       y="180"
       rx="8"
       ry="8"
       fill="#f6f5f4"
       id="rect37" />
    <path
       style="marker:none"
       d="m 28,248 v 10 h 64 v -4 h 8 v -6 z"
       color="#000000"
       overflow="visible"
       fill="#deddda"
       id="path39" />
    <path
       d="m 48,254 a 6.176,6.176 0 0 0 -2.982,0.766 5.883,5.883 0 0 0 -2.262,2.22 C 42.164,256.42 41.293,256 40,256 H 20 v 4 h 21.215 c 0.453,0 0.715,0.301 0.775,0.742 10e-4,0.035 0.01,0.068 0.01,0.104 V 262 H 20 v 4 h 13.951 l -4,4 H 20 v 2 h 8.275 c -0.515,1.129 -0.448,2.63 1.108,4.225 L 33.607,272 h 5.547 A 4.858,4.858 0 0 0 44,267.154 v -1.125 h 8 v 1.125 A 4.858,4.858 0 0 0 56.846,272 h 5.576 l 4.195,4.195 c 1.542,-1.58 1.62,-3.07 1.12,-4.195 h 7.417 A 4.858,4.858 0 0 0 80,267.154 v -1.125 h 2 V 258 c 0,-1.063 -0.828,-2 -2,-2 H 56 c 0,0 -1.578,0.002 -2.752,0.994 A 5.882,5.882 0 0 0 50.982,254.766 6.176,6.176 0 0 0 48,254 Z m 0,2.004 c 0.698,0 1.396,0.17 2.018,0.514 1.242,0.685 1.982,1.926 1.982,3.26 0,0.04 0.002,0.079 0.006,0.118 C 52.005,259.933 52,259.963 52,260 v 2 h -8 v -2 l -0.008,-0.086 c 0.006,-0.045 0.008,-0.091 0.008,-0.137 0,-1.333 0.74,-2.574 1.982,-3.26 A 4.182,4.182 0 0 1 48,256.004 Z m 6.785,4.012 h 23.082 c 0.079,0.263 0.133,0.538 0.133,0.83 v 1.183 H 58.107 L 58.078,262 H 54 v -1.154 c 0,-0.034 0.009,-0.066 0.01,-0.1 0.025,-0.436 0.326,-0.73 0.775,-0.73 z m -15.207,6.013 H 42 v 1.125 A 2.818,2.818 0 0 1 39.154,270 h -3.547 z m 14.422,0 h 2.451 L 60.421,270 H 56.846 A 2.818,2.818 0 0 1 54,267.154 Z m 8.107,0 H 78 v 1.125 A 2.818,2.818 0 0 1 75.154,270 h -9.076 z"
       style="marker:none"
       opacity="0.1"
       id="path41" />
    <path
       style="line-height:normal;font-variant-ligatures:normal;font-variant-position:normal;font-variant-caps:normal;font-variant-numeric:normal;font-variant-alternates:normal;font-feature-settings:normal;text-indent:0;text-align:start;text-decoration-line:none;text-decoration-style:solid;text-decoration-color:#000000;text-transform:none;text-orientation:mixed;white-space:normal;shape-padding:0;isolation:auto;mix-blend-mode:normal;solid-color:#000000;solid-opacity:1"
       d="m 29.383,274.225 c -2.112,-2.164 -1.492,-4.164 -0.375,-5.282 l 8.913,-8.914 H 82 v 4 H 39.579 Z"
       color="#000000"
       font-weight="400"
       font-family="sans-serif"
       overflow="visible"
       fill="#949390"
       id="path43" />
    <path
       style="line-height:normal;font-variant-ligatures:normal;font-variant-position:normal;font-variant-caps:normal;font-variant-numeric:normal;font-variant-alternates:normal;font-feature-settings:normal;text-indent:0;text-align:start;text-decoration-line:none;text-decoration-style:solid;text-decoration-color:#000000;text-transform:none;text-orientation:mixed;white-space:normal;shape-padding:0;isolation:auto;mix-blend-mode:normal;solid-color:#000000;solid-opacity:1"
       d="m 66.617,274.195 c 2.112,-2.164 1.492,-4.164 0.375,-5.281 L 58.08,260 H 14 v 4 h 42.421 z"
       color="#000000"
       font-weight="400"
       font-family="sans-serif"
       overflow="visible"
       fill="#949390"
       id="path45" />
    <path
       style="marker:none"
       d="m 43,257.777 a 4.775,5 90 0 1 2.5,-4.136 4.775,5 90 0 1 5,0 4.775,5 90 0 1 2.5,4.136"
       fill="none"
       stroke="#1a5fb4"
       stroke-width="2"
       stroke-linecap="round"
       id="path47" />
    <path
       d="M 40.73,269 H 19.27 A 2.264,2.264 0 0 1 17,266.73 v -7.46 A 2.264,2.264 0 0 1 19.27,257 h 21.46 a 2.264,2.264 0 0 1 2.27,2.27 v 7.46 A 2.264,2.264 0 0 1 40.73,269 Z"
       style="marker:none"
       fill="#ffffff"
       fill-opacity="0.441"
       id="path49" />
    <path
       d="m 20.845,269 h 18.31 A 3.836,3.836 0 0 0 43,265.155 v -6.31 A 3.836,3.836 0 0 0 39.155,255 H 20.845 A 3.836,3.836 0 0 0 17,258.845 v 6.31 A 3.836,3.836 0 0 0 20.845,269 Z"
       style="marker:none"
       fill="none"
       stroke="#1a5fb4"
       stroke-width="2"
       stroke-linecap="round"
       id="path51" />
    <path
       d="M 76.73,269 H 55.27 A 2.264,2.264 0 0 1 53,266.73 v -7.46 A 2.264,2.264 0 0 1 55.27,257 h 21.46 a 2.264,2.264 0 0 1 2.27,2.27 v 7.46 A 2.264,2.264 0 0 1 76.73,269 Z"
       style="marker:none"
       fill="#ffffff"
       fill-opacity="0.441"
       id="path53" />
    <path
       d="m 56.845,269 h 18.31 A 3.836,3.836 0 0 0 79,265.155 v -6.31 A 3.836,3.836 0 0 0 75.155,255 H 56.845 A 3.836,3.836 0 0 0 53,258.845 v 6.31 A 3.836,3.836 0 0 0 56.845,269 Z"
       style="marker:none"
       fill="none"
       stroke="#1a5fb4"
       stroke-width="2"
       stroke-linecap="round"
       id="path55" />
    <path
       d="m 82,256 c 0,-1.063 -0.828,-2 -2,-2 H 56 c 0,0 -4,0 -4,4 v 4 h 2 v -3.2 c 0,-0.468 0.316,-0.784 0.785,-0.784 h 23.43 c 0.469,0 0.925,0.337 0.785,0.785 V 262 h 1 c 2,0 2,2 2,2 z m -38,6 v -4 c 0,0 0,-4 -4,-4 H 16 c -0.88,0 -2,0.905 -2,2 v 8 c 0,0 0,-2 2,-2 h 1 v -3.215 C 17,258.316 17.316,258 17.785,258 h 23.43 c 0.469,0 0.737,0.319 0.785,0.785 L 42.125,262 Z"
       style="line-height:normal;font-variant-ligatures:normal;font-variant-position:normal;font-variant-caps:normal;font-variant-numeric:normal;font-variant-alternates:normal;font-feature-settings:normal;text-indent:0;text-align:start;text-decoration-line:none;text-decoration-style:solid;text-decoration-color:#000000;text-transform:none;text-orientation:mixed;white-space:normal;shape-padding:0;isolation:auto;mix-blend-mode:normal;solid-color:#000000;solid-opacity:1;marker:none"
       color="#000000"
       font-weight="400"
       font-family="sans-serif"
       overflow="visible"
       fill="#1a5fb4"
       id="path57" />
    <rect
       style="marker:none"
       width="32"
       height="32"
       x="68.000999"
       y="210"
       rx="0"
       ry="0"
       fill="#f66151"
       id="rect59" />
    <path
       d="m 69.71,235.207 a 41.947,41.947 0 0 0 14.33,-7.194 c 1.441,-1.114 2.838,-2.357 3.717,-3.952 0.44,-0.798 0.741,-1.678 0.824,-2.585 0.082,-0.907 -0.062,-1.841 -0.468,-2.656 a 4.788,4.788 0 0 0 -1.525,-1.755 5.755,5.755 0 0 0 -2.144,-0.918 c -1.533,-0.32 -3.144,-0.064 -4.609,0.49 -1.762,0.669 -3.374,1.785 -4.507,3.291 -1.134,1.507 -1.766,3.412 -1.62,5.292 0.096,1.218 0.513,2.405 1.156,3.444 0.643,1.04 1.509,1.935 2.496,2.656 1.975,1.442 4.395,2.171 6.82,2.482 5.52,0.706 11.285,-0.715 15.845,-3.905 l -0.024,-5.188 c -3.574,3.943 -8.657,6.483 -13.956,6.975 -2.287,0.212 -4.67,0.039 -6.736,-0.966 -1.033,-0.502 -1.973,-1.21 -2.692,-2.106 -0.72,-0.895 -1.214,-1.98 -1.355,-3.12 -0.206,-1.663 0.358,-3.38 1.398,-4.694 1.04,-1.314 2.527,-2.239 4.127,-2.74 0.883,-0.275 1.818,-0.429 2.736,-0.311 0.917,0.118 1.817,0.527 2.415,1.233 0.484,0.572 0.75,1.313 0.796,2.061 0.047,0.748 -0.117,1.501 -0.415,2.189 -0.595,1.375 -1.693,2.464 -2.812,3.46 a 46.823,46.823 0 0 1 -13.796,8.517 z"
       style="marker:none"
       color="#000000"
       overflow="visible"
       fill="#ffffff"
       id="path61" />
    <path
       style="line-height:normal;font-variant-ligatures:normal;font-variant-position:normal;font-variant-caps:normal;font-variant-numeric:normal;font-variant-alternates:normal;font-feature-settings:normal;text-indent:0;text-align:start;text-decoration-line:none;text-decoration-style:solid;text-decoration-color:#000000;text-transform:none;text-orientation:mixed;white-space:normal;shape-padding:0;isolation:auto;mix-blend-mode:normal;solid-color:#000000;solid-opacity:1"
       d="m 28,192 v 4 h 40 v -4 z"
       color="#000000"
       font-weight="400"
       font-family="sans-serif"
       overflow="visible"
       fill="#77767b"
       fill-rule="evenodd"
       id="path63" />
    <path
       style="marker:none"
       d="m 28,222 h 36 v 18 H 48 v 4 H 28 Z m 36,-16 v 12 H 28 v -18 h 72 v 6 z"
       color="#000000"
       overflow="visible"
       fill="#deddda"
       id="path65" />
    <path
       d="M 108,280.654 A 7.468,7.468 0 0 1 100.508,288 h -0.5 v 1 h 0.5 a 8.488,8.488 0 0 0 7.463,-4.428 C 107.984,284.382 108,284.193 108,284 Z M 66,288 l 34,1 v -1 z"
       fill="#c0bfbc"
       fill-opacity="0.272"
       id="path67" />
  </g>
</svg>
