<?xml version="1.0" encoding="UTF-8" standalone="no"?>
<svg
   version="1.1"
   viewBox="0 0 48 48"
   width="48"
   height="48"
   id="svg10"
   sodipodi:docname="flameshot.svg"
   inkscape:version="1.2.2 (b0a8486541, 2022-12-01)"
   xmlns:inkscape="http://www.inkscape.org/namespaces/inkscape"
   xmlns:sodipodi="http://sodipodi.sourceforge.net/DTD/sodipodi-0.dtd"
   xmlns="http://www.w3.org/2000/svg"
   xmlns:svg="http://www.w3.org/2000/svg">
  <defs
     id="defs14" />
  <sodipodi:namedview
     id="namedview12"
     pagecolor="#ffffff"
     bordercolor="#000000"
     borderopacity="0.25"
     inkscape:showpageshadow="2"
     inkscape:pageopacity="0.0"
     inkscape:pagecheckerboard="0"
     inkscape:deskcolor="#d1d1d1"
     showgrid="false"
     inkscape:zoom="4.4765625"
     inkscape:cx="71.148342"
     inkscape:cy="53.947644"
     inkscape:window-width="1362"
     inkscape:window-height="706"
     inkscape:window-x="0"
     inkscape:window-y="0"
     inkscape:window-maximized="1"
     inkscape:current-layer="svg10" />
  <path
     d="m 23.96197,2.2663476 c 11.823806,0 21.376373,9.5525674 21.376373,21.3763734 0,11.823807 -9.552567,21.376374 -21.376373,21.376374 -11.823807,0 -21.3763734,-9.552567 -21.3763734,-21.376374 0,-11.823806 9.5525664,-21.3763734 21.3763734,-21.3763734 z"
     fill="#8800aa"
     id="path2"
     style="stroke-width:0.668012" />
  <path
     d="m 25.49955,20.812798 c 12.394324,-2.392362 12.870422,-7.797791 12.870422,-7.797791 0,0 -0.976073,16.752246 -10.034,17.638548 -11.478506,1.123153 -13.19341,6.538151 -13.19341,6.538151 0,0 3.069637,-14.972298 10.356988,-16.378908 z"
     fill="#ff0066"
     id="path4"
     style="stroke-width:0.668012" />
  <path
     d="M 18.020918,20.073692 C 28.523033,15.62594 27.561149,8.3702813 27.561149,8.3702813 c 0,0 5.798269,14.8019767 -2.894095,18.2528047 -9.710268,3.854931 -9.278201,10.4397 -9.278201,10.4397 0,0 -3.535964,-14.37687 2.632065,-16.989094 z"
     fill="#ff6600"
     id="path6"
     style="stroke-width:0.668012" />
  <path
     d="m 11.834167,24.0086 c 5.900436,-7.780516 4.573288,-13.237552 4.573288,-13.237552 0,0 7.559704,9.479318 2.415544,15.350492 -5.746559,6.558707 -3.243906,11.121651 -3.243906,11.121651 0,0 -7.129193,-8.771974 -3.744926,-13.234591 z"
     fill="#ffcc00"
     id="path8"
     style="stroke-width:0.668012" />
</svg>
