<?xml version="1.0" encoding="UTF-8" standalone="no"?>
<!DOCTYPE svg PUBLIC "-//W3C//DTD SVG 1.1//EN" "http://www.w3.org/Graphics/SVG/1.1/DTD/svg11.dtd">
<svg xmlns="http://www.w3.org/2000/svg" viewBox="0 0 48 48">
  <linearGradient id="b" x1="209.55" x2="202.58" y1="385.21" y2=".063" gradientUnits="userSpaceOnUse">
    <stop offset="0" stop-color="#8645a3"/>
    <stop offset="1" stop-color="#d164ff"/>
  </linearGradient>
  <linearGradient id="c" x1="70.34" x2="69.5" y1="81.7" y2="16.722" gradientUnits="userSpaceOnUse">
    <stop offset="0" stop-color="#b6b9bf"/>
    <stop offset="1" stop-color="#dddfe2"/>
  </linearGradient>
  <linearGradient id="a" x2="0" y1="545.14" y2="518.14" gradientUnits="userSpaceOnUse">
    <stop offset="0" stop-color="#ec396c"/>
    <stop offset="1" stop-color="#ff709a"/>
  </linearGradient>
  <g transform="translate(-279.686 -435.392) scale(.88407)">
    <circle cx="400.57" cy="531.8" r="14" fill="url(#a)" transform="translate(-265.16 -282.56) scale(1.51949)"/>
    <path fill="#fff" fill-opacity=".85" d="M344.685 540.507c-4.352-1.566-6.938-3.488-9.772-7.777-.696-1.181-1.975-3.82-1.926-7.26-.113-3.432 1.62-7.386 4.857-9.496 3.125-2.227 7.158-2.26 9.557-1.38 2.475.918 3.479 2.448 3.507 2.375-.076.02 1.326 1.198 1.95 3.765.697 2.466-.01 6.553-3.413 8.229-1.564.839-3.597.99-5.19.39-1.594-.642-2.749-2.053-3.136-3.528-.84-3.255 1.63-5.06 2.72-5.244 4.433-1.479 6.678 5.459 1.493 6.046 2.364.79 4.8-1.638 4.337-4.106-.094-2.471-3.085-4.926-6.385-3.918a6.04 6.04 0 0 0-3.187 2.202c-1.047 1.352-1.522 3.471-.978 5.53.53 2.072 2.144 4.054 4.392 4.943 2.271.837 4.8.598 6.887-.488 4.457-2.205 5.349-7.578 4.463-10.534-.781-3.177-2.507-4.631-2.418-4.654-.032.087-1.273-1.8-4.341-2.946-3-1.094-7.68-1.017-11.423 1.609-3.832 2.458-5.91 7.288-5.758 11.18-.052 3.953 1.421 6.979 2.225 8.324 3.24 4.942 6.954 6.486 11.539 6.734"/>
  </g>
  <g fill="url(#b)" transform="matrix(.32814 0 0 .32792 .81 -4.684)">
    <g fill="#a0a3a8" fill-rule="evenodd">
      <path d="M43.36 53.373l.637-1.807c.23-.778.448-.62 1.359-.62H61.96l3.337 3.332-20.807.142c-1.375.015-1.601.286-1.13-1.047m54.844.157l-.556-1.575c-.255-1.074-.421-1.01-1.607-1.01H79.547l-3.337 3.333 20.674.141c1.253-.044 1.782.423 1.32-.888M58.957 16.85l.56-1.491c.255-1.075.421-1.01 1.607-1.01h16.494l3.337 3.333H59.577c-.999.044-.956.063-.62-.832"/>
      <path d="M82.975 16.877l-.56-1.491c-.255-1.075-.421-1.01-1.608-1.01H64.313l-3.337 3.333h21.378c1 .044.957.063.62-.832"/>
    </g>
    <path fill="url(#c)" d="M69.24 82.35L44.43 56.865s-3.68-3.794.819-3.794h13.48V18.738c-.088-1.776.011-1.926 1.738-1.917h21c1.493-.166 1.842.049 1.841 1.631V53.07h12.904c4.158 0 1.227 3.172 1.227 3.172s-21.11 23.82-24.05 26.319c-2.118 1.811-4.149-.212-4.149-.212"/>
  </g>
</svg>