<?xml version="1.0" encoding="UTF-8" standalone="no"?>
<svg
   xml:space="preserve"
   viewBox="0 0 48 47.999999"
   y="0px"
   x="0px"
   sodipodi:docname="kdenlive.svg"
   inkscape:version="1.2.2 (b0a8486541, 2022-12-01)"
   inkscape:export-ydpi="90"
   inkscape:export-xdpi="90"
   inkscape:export-filename="/home/farid/Gunga/Kdenlive/kdenlive-logo-manual.png"
   id="svg4446"
   version="1.1"
   width="48"
   height="48"
   xmlns:inkscape="http://www.inkscape.org/namespaces/inkscape"
   xmlns:sodipodi="http://sodipodi.sourceforge.net/DTD/sodipodi-0.dtd"
   xmlns="http://www.w3.org/2000/svg"
   xmlns:svg="http://www.w3.org/2000/svg"
   xmlns:rdf="http://www.w3.org/1999/02/22-rdf-syntax-ns#"
   xmlns:cc="http://creativecommons.org/ns#"
   xmlns:dc="http://purl.org/dc/elements/1.1/"><metadata
   id="metadata855">
  <rdf:RDF>
    <cc:Work
   rdf:about="">
      <dc:format>image/svg+xml</dc:format>
      <dc:type
   rdf:resource="http://purl.org/dc/dcmitype/StillImage" />
    </cc:Work>
  </rdf:RDF>
</metadata>
<defs
   id="defs853" />

<style
   id="style833"
   type="text/css">
	.st0{fill:#83B9F5;}
	.st1{fill:#F38577;}
	.st2{fill:#527EB2;}
</style>

<sodipodi:namedview
   inkscape:document-rotation="0"
   units="px"
   showguides="true"
   showgrid="false"
   showborder="true"
   pagecolor="#ffffff"
   inkscape:zoom="5.6"
   inkscape:window-y="0"
   inkscape:window-x="0"
   inkscape:window-width="1366"
   inkscape:window-maximized="0"
   inkscape:window-height="768"
   inkscape:pageshadow="2"
   inkscape:pageopacity="0.0"
   inkscape:guide-bbox="true"
   inkscape:document-units="px"
   inkscape:cy="36.875"
   inkscape:cx="17.946429"
   inkscape:current-layer="g5995-0-6"
   id="base"
   borderopacity="1.0"
   bordercolor="#666666"
   inkscape:showpageshadow="2"
   inkscape:pagecheckerboard="0"
   inkscape:deskcolor="#d1d1d1">
	</sodipodi:namedview>

<g
   inkscape:label="Camada 1"
   inkscape:groupmode="layer"
   transform="translate(0,75.637839)"
   id="layer1">
	<g
   transform="matrix(0.88963843,0,0,0.88963843,1492.3067,1727.8447)"
   id="g5995-0-6">
		<g
   transform="matrix(0.28579903,0,0,0.28579903,-1200.2524,-1441.4978)"
   id="g5997-6-2">
			<path
   d="m -1598.1,-2004.7 v 7.5 h 10.3 v -7.5 z"
   class="st0"
   inkscape:connector-curvature="0"
   id="path5999-1-9" />

			<path
   d="m -1606.2,-1992.6 v 7.5 h 18.5 v -7.5 z"
   class="st0"
   inkscape:connector-curvature="0"
   id="path6001-5-1" />

			<path
   d="m -1627.9,-1980.5 v 7.5 h 40.1 v -7.5 z"
   class="st0"
   inkscape:connector-curvature="0"
   id="path6003-54-2" />

			<path
   d="m -1650,-1968.5 v 7.5 h 62.2 v -7.5 z"
   class="st0"
   inkscape:connector-curvature="0"
   id="path6005-7-7" />

			<path
   d="m -1664.6,-1956.4 v 7.5 h 76.8 v -7.5 z"
   class="st0"
   inkscape:connector-curvature="0"
   id="path6007-6-09" />

			<path
   d="m -1640.3,-1944.4 v 7.5 h 52.5 v -7.5 z"
   class="st0"
   inkscape:connector-curvature="0"
   id="path6009-5-3" />

			<path
   d="m -1618.9,-1932.3 v 7.5 h 31.2 v -7.5 z"
   class="st0"
   inkscape:connector-curvature="0"
   id="path6011-6-6" />

			<path
   d="m -1627.3,-1920.3 v 7.5 h 39.6 v -7.5 z"
   class="st0"
   inkscape:connector-curvature="0"
   id="path6013-9-0" />

			<path
   d="m -1606.9,-1908.8 v 7.5 h 19.1 v -7.5 z"
   class="st0"
   inkscape:connector-curvature="0"
   id="path6015-3-6" />

		</g>

		<g
   transform="matrix(-0.99945338,0,0,0.99945338,-707.49331,-2369.4473)"
   id="g6017-7-2">
			<path
   d="m 938.1,349.6 h 9.3 l -4.6,7.1 z"
   class="st1"
   sodipodi:nodetypes="cccc"
   inkscape:connector-curvature="0"
   id="path6019-4-61" />

			<path
   d="m 942.2,350.9 v 37.2 h 1.2 v -37.2 z"
   class="st1"
   inkscape:connector-curvature="0"
   id="path6021-5-8" />

		</g>

		<path
   d="m -1644.7736,-2014.444 c -0.4266,0 -0.7963,0.3413 -0.7963,0.768 v 28.0725 c 0,0.6258 0.711,0.9956 1.223,0.6258 l 19.3407,-14.0221 c 0.4267,-0.3129 0.4267,-0.9386 0,-1.2514 l -19.3407,-14.0222 c -0.1138,-0.1137 -0.256,-0.1706 -0.4267,-0.1706 z"
   class="st2"
   sodipodi:nodetypes="cccccccc"
   inkscape:connector-curvature="0"
   id="path6023-2-7"
   style="stroke-width:0.284424" />

	</g>

</g>

</svg>
