<?xml version="1.0" encoding="UTF-8" standalone="no"?>
<svg
   viewBox="0 0 48 48"
   version="1.1"
   id="svg16"
   sodipodi:docname="libreoffice.svg"
   width="48"
   height="48"
   inkscape:version="1.2.2 (b0a8486541, 2022-12-01)"
   xmlns:inkscape="http://www.inkscape.org/namespaces/inkscape"
   xmlns:sodipodi="http://sodipodi.sourceforge.net/DTD/sodipodi-0.dtd"
   xmlns="http://www.w3.org/2000/svg"
   xmlns:svg="http://www.w3.org/2000/svg">
  <defs
     id="defs20" />
  <sodipodi:namedview
     id="namedview18"
     pagecolor="#ffffff"
     bordercolor="#000000"
     borderopacity="0.25"
     inkscape:showpageshadow="2"
     inkscape:pageopacity="0.0"
     inkscape:pagecheckerboard="0"
     inkscape:deskcolor="#d1d1d1"
     showgrid="false"
     inkscape:zoom="4.4765625"
     inkscape:cx="57.968586"
     inkscape:cy="52.830716"
     inkscape:window-width="1362"
     inkscape:window-height="706"
     inkscape:window-x="0"
     inkscape:window-y="0"
     inkscape:window-maximized="1"
     inkscape:current-layer="svg16" />
  <linearGradient
     id="a"
     gradientUnits="userSpaceOnUse"
     x1="108.00134"
     x2="20.001341"
     y1="122"
     y2="6"
     gradientTransform="matrix(0.32890859,0,0,0.32890859,2.6034968,2.9664324)">
    <stop
       offset="0"
       stop-color="#e6e6e6"
       id="stop2" />
    <stop
       offset="1"
       stop-color="#fff"
       id="stop4" />
  </linearGradient>
  <linearGradient
     id="b"
     gradientTransform="matrix(2.6311832,0,0,2.6305385,-284.85189,-2565.4042)"
     gradientUnits="userSpaceOnUse"
     x1="122.75008"
     x2="111.74973"
     y1="991.62115"
     y2="977.11713">
    <stop
       offset="0"
       stop-color="#535353"
       id="stop7" />
    <stop
       offset="1"
       stop-color="#7e7e7e"
       id="stop9" />
  </linearGradient>
  <path
     d="m 8.2782536,2.9664322 c -0.082352,0 -0.1646917,0.00366 -0.2466818,0.011563 C 6.8254379,3.2081655 6.5298544,3.7233833 6.5514834,4.9508044 V 43.093922 c 1.316e-4,1.377304 0.5958146,1.972678 1.9734509,1.97281 H 38.783885 c 1.377634,-1.32e-4 1.972675,-0.595506 1.972807,-1.97281 V 19.472247 c 0.01579,-0.694623 -0.256562,-1.391365 -0.740044,-1.890583 L 26.149813,3.7180396 C 25.650468,3.2348072 24.953379,2.9619117 24.258589,2.9779954 H 8.5249343 C 8.4429756,2.9701052 8.3606056,2.9664322 8.2782536,2.9664322 Z m 23.0268174,0.0045 c -0.06906,0 -0.137971,0.00553 -0.20621,0.01606 -0.87571,0.2804933 -1.170398,1.6131476 -0.49529,2.2400474 l 7.925282,7.9663964 c 0.732127,0.697846 2.189906,0.100718 2.228481,-0.912849 V 4.3141856 c -7.9e-5,-0.695214 -0.629196,-1.3270988 -1.320769,-1.3271975 h -7.924644 c -0.06828,-0.01052 -0.137794,-0.01606 -0.20685,-0.01606 z"
     fill="url(#b)"
     id="path12"
     style="fill:url(#b);stroke-width:0.328909" />
  <path
     d="M 8.524297,4.9398836 V 43.09328 H 38.783892 V 19.411861 L 24.311915,4.9398836 Z"
     fill="url(#a)"
     id="path14"
     style="fill:url(#a);stroke-width:0.328909" />
</svg>
