<?xml version="1.0" encoding="UTF-8" standalone="no"?>
<svg
   version="1.1"
   viewBox="0 0 48 48"
   id="svg67"
   sodipodi:docname="obs-studio.svg"
   width="48"
   height="48"
   inkscape:version="1.2.2 (b0a8486541, 2022-12-01)"
   xmlns:inkscape="http://www.inkscape.org/namespaces/inkscape"
   xmlns:sodipodi="http://sodipodi.sourceforge.net/DTD/sodipodi-0.dtd"
   xmlns:xlink="http://www.w3.org/1999/xlink"
   xmlns="http://www.w3.org/2000/svg"
   xmlns:svg="http://www.w3.org/2000/svg"
   xmlns:rdf="http://www.w3.org/1999/02/22-rdf-syntax-ns#"
   xmlns:cc="http://creativecommons.org/ns#"
   xmlns:dc="http://purl.org/dc/elements/1.1/">
  <sodipodi:namedview
     id="namedview69"
     pagecolor="#ffffff"
     bordercolor="#000000"
     borderopacity="0.25"
     inkscape:showpageshadow="2"
     inkscape:pageopacity="0.0"
     inkscape:pagecheckerboard="0"
     inkscape:deskcolor="#d1d1d1"
     showgrid="false"
     inkscape:zoom="4.6163142"
     inkscape:cx="20.254254"
     inkscape:cy="41.916558"
     inkscape:window-width="1362"
     inkscape:window-height="706"
     inkscape:window-x="0"
     inkscape:window-y="0"
     inkscape:window-maximized="1"
     inkscape:current-layer="svg67" />
  <defs
     id="defs43">
    <style
       type="text/css"
       id="style2">.cls-1{fill:url(#radial-gradient);}.cls-2{fill:none;}.cls-3{fill:url(#radial-gradient-2);}.cls-4{fill:url(#radial-gradient-3);}.cls-5{clip-path:url(#clip-path);}.cls-6{fill:url(#radial-gradient-5);}.cls-7{clip-path:url(#clip-path-2);}.cls-8{fill:url(#radial-gradient-6);}.cls-9{fill:url(#radial-gradient-7);}</style>
    <radialGradient
       id="radial-gradient"
       cx="512.06"
       cy="512.12"
       r="444.12"
       gradientUnits="userSpaceOnUse">
      <stop
         stop-opacity=".5"
         offset=".99"
         id="stop4" />
      <stop
         stop-opacity="0"
         offset="1"
         id="stop6" />
    </radialGradient>
    <radialGradient
       id="radial-gradient-2"
       cx="514.5"
       cy="516.5"
       r="496.5"
       gradientUnits="userSpaceOnUse">
      <stop
         offset=".91341"
         id="stop9" />
      <stop
         stop-opacity="0"
         offset="1"
         id="stop11" />
    </radialGradient>
    <radialGradient
       id="radial-gradient-3"
       cx="512.06"
       cy="512.12"
       r="486.26999"
       gradientUnits="userSpaceOnUse">
      <stop
         stop-color="#fff"
         offset=".99"
         id="stop14" />
      <stop
         stop-color="#fdfdfd"
         offset=".99505"
         id="stop16" />
      <stop
         stop-color="#f6f6f6"
         offset=".99687"
         id="stop18" />
      <stop
         stop-color="#ebebeb"
         offset=".99817"
         id="stop20" />
      <stop
         stop-color="#dadada"
         offset=".99921"
         id="stop22" />
      <stop
         stop-color="#c7c7c7"
         offset="1"
         id="stop24" />
    </radialGradient>
    <clipPath
       id="clip-path"
       transform="translate(-18 -20)">
      <path
         id="SVGID"
         class="cls-1"
         d="m 67.938,512.12 c 0,245.29 198.84,444.12 444.12,444.12 245.28,0 444.13,-198.83 444.13,-444.12 C 956.188,266.84 757.348,68 512.058,68 266.768,68 67.938,266.84 67.938,512.12" />
    </clipPath>
    <radialGradient
       id="radial-gradient-5"
       cx="494.06"
       cy="492.12"
       r="444.12"
       xlink:href="#radial-gradient" />
    <clipPath
       id="clip-path-2"
       transform="translate(-18 -20)">
      <path
         class="cls-2"
         d="m 71.603,512.12 c 0,243.26 197.2,440.46 440.46,440.46 243.26,0 440.46,-197.19 440.46,-440.46 0,-243.26 -197.2,-440.46 -440.46,-440.46 -243.26,0 -440.46,197.2 -440.46,440.46"
         id="path30" />
    </clipPath>
    <radialGradient
       id="radial-gradient-6"
       cx="5.2951999"
       cy="1029.3"
       r="4.6532998"
       gradientTransform="matrix(94.654,0,0,-94.654,-7.1542,97921)"
       gradientUnits="userSpaceOnUse">
      <stop
         offset="0"
         id="stop33" />
      <stop
         stop-color="#322f32"
         offset="1"
         id="stop35" />
    </radialGradient>
    <radialGradient
       id="radial-gradient-7"
       cx="578.89001"
       cy="473.32001"
       r="353.94"
       gradientTransform="matrix(0.04559055,0,0,0.05001739,0.73864222,-1.96268)"
       gradientUnits="userSpaceOnUse">
      <stop
         stop-color="#c2c0c2"
         offset="0"
         id="stop38" />
      <stop
         stop-color="#ebebeb"
         offset="1"
         id="stop40" />
    </radialGradient>
    <radialGradient
       inkscape:collect="always"
       xlink:href="#radial-gradient"
       id="radialGradient300"
       gradientUnits="userSpaceOnUse"
       cx="512.06"
       cy="512.12"
       r="444.12" />
  </defs>
  <title
     id="title45">OBS Studio</title>
  <desc
     id="desc47">Open-source screencasting and streaming software</desc>
  <g
     shape-rendering="geometricPrecision"
     id="g55"
     transform="matrix(0.04559055,0,0,0.04559055,1.5592721,1.043652)">
    <path
       class="cls-3"
       transform="translate(-18,-20)"
       d="M 514.5,20 C 788.71048,20 1011,242.28952 1011,516.5 1011,790.71048 788.71048,1013 514.5,1013 240.28952,1013 18,790.71056 18,516.5 18,242.28944 240.28946,20 514.5,20"
       id="path49"
       style="fill:url(#radial-gradient-2)" />
    <path
       class="cls-4"
       transform="translate(-18,-20)"
       d="m 512.06,25.849 c 268.56,0 486.27,217.71 486.27,486.27 0,268.56 -217.71,486.27 -486.27,486.27 -268.56,0 -486.27,-217.71 -486.27,-486.27 0,-268.56 217.71,-486.27 486.27,-486.27"
       id="path51"
       style="fill:url(#radial-gradient-3)" />
    <path
       class="cls-1"
       transform="translate(-18,-20)"
       d="m 67.938,512.12 c 0,245.29 198.84,444.12 444.12,444.12 245.28,0 444.13,-198.83 444.13,-444.12 C 956.188,266.84 757.348,68 512.058,68 266.768,68 67.938,266.84 67.938,512.12"
       id="path53"
       style="fill:url(#radialGradient300)" />
  </g>
  <g
     class="cls-5"
     clip-path="url(#clip-path)"
     id="g59"
     transform="matrix(0.04559055,0,0,0.04559055,1.5592721,1.043652)">
    <rect
       class="cls-6"
       x="49.938"
       y="48"
       width="888.25"
       height="888.23999"
       shape-rendering="geometricPrecision"
       id="rect57"
       style="fill:url(#radial-gradient-5)" />
  </g>
  <g
     class="cls-7"
     clip-path="url(#clip-path-2)"
     id="g63"
     transform="matrix(0.04559055,0,0,0.04559055,1.5592721,1.043652)">
    <rect
       class="cls-8"
       x="53.603001"
       y="51.665001"
       width="880.91998"
       height="880.90997"
       shape-rendering="geometricPrecision"
       id="rect61"
       style="fill:url(#radial-gradient-6)" />
  </g>
  <path
     class="cls-9"
     d="M 31.964063,17.023138 A 9.0834604,9.0834604 0 0 1 19.32454,20.235265 9.2434831,9.2434831 0 0 1 17.276932,18.513174 9.0688713,9.0688713 0 0 1 15.002055,12.07898 c 0.01294,-0.263951 0.03504,-0.527163 0.0696,-0.789172 0.03406,-0.258225 0.07959,-0.51531 0.13575,-0.769295 q 0.08647,-0.391098 0.20731,-0.7733064 0.117259,-0.3720106 0.26732,-0.7327777 c 0.10371,-0.2500677 0.219317,-0.4948395 0.344054,-0.73501 0.131355,-0.2529184 0.276876,-0.4989888 0.432253,-0.7378376 q 0.214954,-0.3304722 0.457911,-0.6410942 c 0.17572,-0.2257097 0.362445,-0.4434684 0.559442,-0.6508507 Q 17.773937,5.935627 18.098875,5.6495737 C 18.319464,5.4552348 18.550786,5.2734608 18.789116,5.1014842 Q 18.973401,4.9684965 19.164618,4.8456345 A 11.141873,11.141873 0 0 0 14.1916,19.59372 q 0.03741,0.07769 0.07602,0.154789 0.01754,0.03502 0.03532,0.06992 a 0.20973475,0.20973475 0 0 0 0.02143,0.04181 c 0.01475,0.01635 0.01845,0.01362 0.04103,0.01321 0.117533,-0.0021 0.235161,-0.0016 0.35268,9.58e-4 q 0.325717,0.0071 0.650394,0.03714 a 9.0989611,9.0989611 0 0 1 8.122412,7.5849 9.1787445,9.1787445 0 0 1 0.02923,2.743 9.0611209,9.0611209 0 0 1 -2.104505,4.643853 9.2179525,9.2179525 0 0 1 -2.26936,1.904952 9.1117264,9.1117264 0 0 1 -5.660067,1.207876 9.2580722,9.2580722 0 0 1 -1.057837,-0.183726 c -0.225873,-0.05304 -0.449518,-0.115389 -0.670683,-0.185608 a 11.060266,11.060266 0 0 0 3.125096,0.86499 11.262688,11.262688 0 0 0 3.027667,-0.03638 11.102666,11.102666 0 0 0 4.954325,-2.046423 11.217098,11.217098 0 0 0 2.723261,-2.875577 q 0.04747,-0.07236 0.09381,-0.145444 c 0.01198,-0.01891 0.03879,-0.04874 0.03531,-0.0688 a 0.38726889,0.38726889 0 0 0 -0.0479,-0.08865 q -0.09131,-0.171303 -0.175232,-0.346407 -0.168594,-0.351786 -0.306455,-0.71723 a 9.0278399,9.0278399 0 0 1 -0.425852,-1.52122 9.1577729,9.1577729 0 0 1 0.0019,-3.372789 9.0214572,9.0214572 0 0 1 0.973678,-2.701467 9.0761659,9.0761659 0 0 1 7.891267,-4.698562 q 0.334488,-0.0024 0.668494,0.01936 0.322143,0.02143 0.642279,0.06464 0.316946,0.04335 0.630381,0.109142 0.306842,0.06478 0.608861,0.150003 0.295846,0.08393 0.58552,0.187751 0.293635,0.105435 0.579365,0.230865 0.291282,0.127207 0.572663,0.275637 0.281092,0.14784 0.551645,0.314889 c 0.169306,0.10474 0.335747,0.214503 0.497529,0.330586 q 0.250289,0.179591 0.489005,0.374211 c 0.164263,0.133617 0.322786,0.274401 0.476969,0.419524 q 0.24622,0.231764 0.474506,0.481573 0.227852,0.248347 0.436306,0.513807 c 0.155008,0.196873 0.302644,0.399924 0.440422,0.609226 0.141536,0.215019 0.275335,0.43564 0.398841,0.661747 a 9.1276831,9.1276831 0 0 1 0.459005,0.974087 9.4358752,9.4358752 0 0 1 0.36348,1.111088 11.11224,11.11224 0 0 0 -2.356028,-5.513721 11.199773,11.199773 0 0 0 -3.419838,-2.848589 11.07212,11.07212 0 0 0 -4.374322,-1.290395 q -0.194535,-0.01557 -0.389535,-0.02436 z"
     shape-rendering="geometricPrecision"
     id="path65"
     style="fill:url(#radial-gradient-7);stroke-width:0.0455905" />
  <metadata
     id="metadata298">
    <rdf:RDF>
      <cc:Work
         rdf:about="">
        <dc:title>OBS Studio</dc:title>
      </cc:Work>
    </rdf:RDF>
  </metadata>
</svg>
