<?xml version="1.0" encoding="UTF-8" standalone="no"?>
<!-- Generator: Adobe Illustrator 13.0.1, SVG Export Plug-In . SVG Version: 6.00 Build 14948)  -->

<svg
   version="1.1"
   x="0px"
   y="0px"
   width="48"
   height="48"
   viewBox="0 0 48.000001 48.000001"
   enable-background="new 0 0 127.561 127.558"
   xml:space="preserve"
   id="svg26"
   sodipodi:docname="peazip.svg"
   inkscape:version="1.2.2 (b0a8486541, 2022-12-01)"
   xmlns:inkscape="http://www.inkscape.org/namespaces/inkscape"
   xmlns:sodipodi="http://sodipodi.sourceforge.net/DTD/sodipodi-0.dtd"
   xmlns="http://www.w3.org/2000/svg"
   xmlns:svg="http://www.w3.org/2000/svg"><defs
   id="defs30" /><sodipodi:namedview
   id="namedview28"
   pagecolor="#ffffff"
   bordercolor="#000000"
   borderopacity="0.25"
   inkscape:showpageshadow="2"
   inkscape:pageopacity="0.0"
   inkscape:pagecheckerboard="0"
   inkscape:deskcolor="#d1d1d1"
   showgrid="false"
   inkscape:zoom="6.3527523"
   inkscape:cx="18.810744"
   inkscape:cy="32.663008"
   inkscape:window-width="1362"
   inkscape:window-height="706"
   inkscape:window-x="0"
   inkscape:window-y="0"
   inkscape:window-maximized="1"
   inkscape:current-layer="svg26" />
<g
   id="Siatka"
   display="none">
</g>
<g
   id="Warstwa_1">
</g>
<g
   id="Pulpit">
</g>
<g
   id="Prowadnice">
</g>
<g
   id="Page_1"
   transform="matrix(0.34004713,0,0,0.34004713,2.6155588,2.3160541)">
	<g
   id="Warstwa_1_1_">
		<g
   id="g22">
			<path
   fill-rule="evenodd"
   clip-rule="evenodd"
   fill="#78e600"
   d="m 110.481,63.783 c 10.859,18.761 17.079,40.542 17.079,63.774 H 0 c 47.204,0 88.423,-25.654 110.481,-63.774 z"
   id="path6" />
			<path
   fill-rule="evenodd"
   clip-rule="evenodd"
   fill="#ffab00"
   d="M 0.001,0 H 127.56 C 104.328,0 82.542,6.216 63.779,17.075 45.014,6.216 23.235,0 0.001,0 Z"
   id="path8" />
			<path
   fill-rule="evenodd"
   clip-rule="evenodd"
   fill="#91bf00"
   d="m 127.56,0 v 127.558 c 0,-23.232 -6.216,-45.019 -17.074,-63.781 C 121.344,45.013 127.56,23.233 127.56,0 Z"
   id="path10" />
			<path
   fill-rule="evenodd"
   clip-rule="evenodd"
   fill="#6c8300"
   d="m 127.56,0 c -0.001,23.232 -6.216,45.014 -17.074,63.777 -3.459,-5.976 -7.387,-11.649 -11.737,-16.963 0.405,0.025 0.813,0.041 1.226,0.041 10.64,0 19.268,-8.626 19.268,-19.267 0,-10.642 -8.628,-19.27 -19.268,-19.27 -10.642,0 -19.269,8.628 -19.269,19.27 0,0.41 0.015,0.82 0.041,1.226 C 75.432,24.463 69.762,20.534 63.783,17.076 82.547,6.216 104.326,0 127.56,0 Z"
   id="path12" />
			<path
   fill-rule="evenodd"
   clip-rule="evenodd"
   fill="#6e9600"
   d="M 0.001,127.558 C 0.002,80.358 25.659,39.14 63.779,17.082 c 5.979,3.46 11.65,7.393 16.966,11.745 0.612,9.654 8.335,17.375 17.988,17.988 4.354,5.316 8.288,10.986 11.749,16.967 -22.06,38.121 -63.278,63.776 -110.481,63.776 z M 63.78,36.192 c 15.234,0 27.586,12.354 27.586,27.588 0,15.23 -12.352,27.584 -27.586,27.584 -15.234,0 -27.586,-12.353 -27.586,-27.583 0,-15.235 12.352,-27.589 27.586,-27.589 z M 27.587,80.704 c 10.641,0 19.269,8.629 19.269,19.267 0,10.642 -8.628,19.27 -19.269,19.27 -10.638,0 -19.268,-8.628 -19.268,-19.27 0,-10.638 8.63,-19.267 19.268,-19.267 z"
   id="path14" />
			<path
   fill-rule="evenodd"
   clip-rule="evenodd"
   fill="#ffe600"
   d="m 27.588,89.818 c 5.606,0 10.152,4.548 10.152,10.154 0,5.606 -4.546,10.151 -10.152,10.151 -5.606,0 -10.153,-4.545 -10.153,-10.151 0,-5.606 4.546,-10.154 10.153,-10.154 z M 63.78,49.242 c 8.027,0 14.537,6.511 14.537,14.537 0,8.026 -6.51,14.537 -14.537,14.537 -8.027,0 -14.537,-6.511 -14.537,-14.537 0,-8.026 6.51,-14.537 14.537,-14.537 z M 99.973,17.435 c 5.607,0 10.153,4.545 10.153,10.151 0,5.608 -4.546,10.153 -10.153,10.153 -5.606,0 -10.153,-4.545 -10.153,-10.153 -10e-4,-5.607 4.546,-10.151 10.153,-10.151 z M 0.001,127.557 V 0 C 23.233,0 45.015,6.22 63.778,17.078 25.655,39.137 0.001,80.354 0.001,127.557 Z"
   id="path16" />
			<path
   fill-rule="evenodd"
   clip-rule="evenodd"
   fill="#32a000"
   d="m 99.973,8.318 c 10.64,0 19.269,8.629 19.269,19.269 0,10.64 -8.629,19.268 -19.269,19.268 -0.413,0 -0.823,-0.015 -1.23,-0.04 C 93.356,40.235 87.326,34.205 80.746,28.817 80.721,28.41 80.706,28.001 80.706,27.588 80.705,16.947 89.333,8.318 99.973,8.318 Z m 0,9.116 c 5.606,0 10.153,4.546 10.153,10.153 0,5.606 -4.547,10.152 -10.153,10.152 -5.606,0 -10.153,-4.546 -10.153,-10.152 -10e-4,-5.608 4.546,-10.153 10.153,-10.153 z"
   id="path18" />
			<path
   fill-rule="evenodd"
   clip-rule="evenodd"
   fill="#32be00"
   d="M 98.742,46.814 C 89.084,46.205 81.354,38.475 80.745,28.816 c 6.58,5.388 12.61,11.418 17.997,17.998 z M 27.588,89.818 c 5.606,0 10.153,4.547 10.153,10.153 0,5.606 -4.547,10.153 -10.153,10.153 -5.606,0 -10.153,-4.547 -10.153,-10.153 0,-5.606 4.546,-10.153 10.153,-10.153 z M 63.78,49.242 c 8.027,0 14.537,6.51 14.537,14.537 0,8.027 -6.51,14.536 -14.537,14.536 -8.027,0 -14.537,-6.509 -14.537,-14.536 0,-8.027 6.51,-14.537 14.537,-14.537 z m 0,-13.05 c 15.233,0 27.586,12.354 27.586,27.586 0,15.232 -12.353,27.586 -27.586,27.586 -15.233,0 -27.586,-12.353 -27.586,-27.585 0,-15.233 12.353,-27.587 27.586,-27.587 z M 27.588,80.703 c 10.64,0 19.269,8.629 19.269,19.269 0,10.64 -8.629,19.268 -19.269,19.268 -10.64,0 -19.269,-8.629 -19.269,-19.269 0,-10.64 8.629,-19.268 19.269,-19.268 z"
   id="path20" />
		</g>
	</g>
</g>
</svg>
