<?xml version="1.0" encoding="UTF-8" standalone="no"?>
<svg height="48" width="48" xmlns="http://www.w3.org/2000/svg" xmlns:xlink="http://www.w3.org/1999/xlink">
  <defs>
    <linearGradient id="a" gradientUnits="userSpaceOnUse" x1="30.625" x2="44" y1="28" y2="42">
      <stop offset="0"/>
      <stop offset="1" stop-opacity=".326446"/>
    </linearGradient>
    <linearGradient id="b" gradientUnits="userSpaceOnUse" x1="16.75" x2="36" y1="-4.5" y2="32">
      <stop offset="0" stop-color="#fff"/>
      <stop offset="1" stop-color="#fff" stop-opacity="0"/>
    </linearGradient>
    <radialGradient id="c" cx="20.853" cy="17.349" gradientTransform="matrix(-.01162882 1.1950891 -1.274916 -.0124056 46.239569 -9.622989)" gradientUnits="userSpaceOnUse" r="8.129">
      <stop offset="0" stop-color="#f10000"/>
      <stop offset="1" stop-color="#b20000"/>
    </radialGradient>
  </defs>
  <g>
    <g stroke-linejoin="bevel" stroke-width="2">
      <path d="m24.15625 23.8125-20.15625-4.96875v24.15625c0 .554007.4459958 1 1 1h16.019531z" fill="#0d9e0e"/>
      <path d="m5 4c-.5540042 0-1 .4459933-1 1v15l20 4 4-20z" fill="#08c513"/>
      <path d="m44 28-20-4-4 20h23c.554004 0 1-.445993 1-1z" fill="#08c513"/>
      <path d="m26.867417 4-3.066291 20.1875 20.198874 3.84375v-23.03125c0-.5540067-.445996-1-1-1z" fill="#0d9e0e"/>
    </g>
    <path d="m4 42v1c0 .554007.445996 1 1 1h38c.554004 0 1-.445993 1-1v-1c0 .554007-.445996 1-1 1h-38c-.554004 0-1-.445993-1-1z" fill="#056b00" opacity=".738"/>
    <path d="m16 38 6 6h21c.554004 0 1-.445993 1-1v-21l-10-10-1 5.0625-2 1.9375h-8l-7-6.875-1.1875 6.9375 1.9375 6.8125 7.3125 7.5-.0625 2.625z" fill="url(#a)" fill-rule="evenodd" opacity=".2"/>
    <path d="m4 6v-1c0-.554007.445996-1 1-1h38c.554004 0 1 .445993 1 1v1c0-.554007-.445996-1-1-1h-38c-.554004 0-1 .445993-1 1z" fill="#fff" opacity=".35"/>
    <path d="m4.21875 4.25v.15625c0 .2155856.1491232.3955313.4238281.5019531-.4412293.1472613-.6445312.5472229-.6445312.8164063v.15625c0-.3337806.4147347-.8789063 1-.8789063h.1542969c.0201923.0005232.0338235.0058594.0546874.0058594h37.5546878c.020803 0 .034537-.0053269.054687-.0058594h.181641c.592899 0 1 .5568444 1 .890625v-.15625c0-.270768-.241895-.6822888-.671875-.8300781.27215-.1067068.423828-.2855016.423828-.5v-.15625c0 .3231934-.416191.5793962-.939453.5957031h-37.6523439c-.5232632-.0163069-.9394531-.2725097-.9394531-.5957031z" fill="#fff" opacity=".569"/>
    <path d="m4.21875 43.751953v-.15625c0-.215585.1491232-.395531.4238281-.501953-.4412293-.147261-.6445312-.547223-.6445312-.816406v-.15625c0 .33378.4147347.878906 1 .878906h.1542969c.020192-.000523.033824-.0059.054687-.0059h37.5546882c.0208 0 .03454.0053.05469.0059h.181641c.592899 0 1-.556844 1-.890625v.15625c0 .270768-.241895.682289-.671875.830078.27215.106707.423828.285502.423828.5v.15625c0-.323193-.416191-.579396-.939453-.595703h-37.6523443c-.5232658.016307-.9394557.27251-.9394557.595703z" fill="#54ff58" opacity=".676"/>
  </g>
  <g>
    <rect fill="#6e6e6e" fill-opacity=".194215" height="40" rx="1" width="40" x="4" y="4"/>
  </g>
  <g>
    <rect fill="#fff" fill-opacity=".334711" height="7.094" rx="0" width="19.787" x="14" y="12"/>
    <path d="m16.026117 19.217466c.01566 4.47119 3.644355 8.087696 8.115572 8.08833 4.471217-.000634 8.099904-3.61714 8.115571-8.08833l-.25726-2.218576-16 .0221z" fill="url(#c)"/>
    <path d="m14 12v7c0 5.184944 3.947244 9.448901 9 9.951172v7.048828h-5c-1.108 0-2 .892-2 2h16c0-1.108-.892-2-2-2h-5v-7.048828c5.052756-.502271 9-4.766228 9-9.951172v-7h-2v7l.002.03125c0 4.435537-3.597666 8.03125-8.033203 8.03125-4.435678 0-7.968797-3.626963-7.968797-8.0625l.002-.03125h-.002v-6.96875z" fill="#e8e8e8"/>
    <path d="m16 18.003791 16-.003791v-1h-16z" fill="#fff" opacity=".239"/>
    <path d="m14 12v7c0 5.184944 3.947244 9.448901 9 9.951172v7.048828h-5c-1.108 0-2 .892-2 2h16c0-1.108-.892-2-2-2h-5v-7.048828c5.052756-.502271 9-4.766228 9-9.951172v-7h-2v7l.002.03125c0 4.435537-3.597666 8.03125-8.033203 8.03125-4.435678 0-7.968797-3.626963-7.968797-8.0625l.002-.03125h-.002v-6.96875z" fill="#e8e8e8"/>
  </g>
  <g>
    <rect fill="url(#b)" height="40" opacity=".551" rx="1" width="40" x="4" y="4"/>
    <g fill="#fff">
      <path d="m17.926298 17.65717.224951 2.763864 2.763864.224951-2.763864.22495-.224951 2.763865-.224951-2.763865-2.763864-.22495 2.763864-.224951z" opacity=".624"/>
      <path d="m19.734341 21.175812.118663 1.579527 1.579527.118664-1.579527.118663-.118663 1.579527-.118664-1.579527-1.579527-.118664 1.579527-.118663z" opacity=".624"/>
      <path d="m13.998505 12.014894 1.999786-.01105v.287262h-1.999786z" fill-rule="evenodd" opacity=".7"/>
      <path d="m31.998505 12.014894 1.999786-.01105v.287262h-1.999786z" fill-rule="evenodd" opacity=".7"/>
      <path d="m16.064453 20.0625c.474849 4.024148 3.824611 7.267659 7.907926 7.272422 4.084889-.0028 7.492049-3.246796 7.967074-7.272422h-.01172c-.50773 3.947004-3.873908 7-7.958984 7-4.07491 0-7.380588-3.063177-7.892578-7z"/>
      <path d="m18 36c-1.108 0-2 .892-2 2h.02539c.122663-.988755.951591-1.751953 1.97461-1.751953h5v-.248047zm7 0v.248047h5c1.023019 0 1.851947.763198 1.974609 1.751953h.025391c0-1.108-.892-2-2-2z"/>
    </g>
  </g>
</svg>