<?xml version="1.0" encoding="UTF-8" standalone="no"?>
<svg
   width="48"
   height="48"
   viewBox="0 0 48 48"
   fill="none"
   version="1.1"
   id="svg46"
   sodipodi:docname="tilix.svg"
   xml:space="preserve"
   inkscape:version="1.2.2 (b0a8486541, 2022-12-01)"
   xmlns:inkscape="http://www.inkscape.org/namespaces/inkscape"
   xmlns:sodipodi="http://sodipodi.sourceforge.net/DTD/sodipodi-0.dtd"
   xmlns:xlink="http://www.w3.org/1999/xlink"
   xmlns="http://www.w3.org/2000/svg"
   xmlns:svg="http://www.w3.org/2000/svg"><sodipodi:namedview
     id="namedview48"
     pagecolor="#ffffff"
     bordercolor="#666666"
     borderopacity="1.0"
     inkscape:showpageshadow="2"
     inkscape:pageopacity="0.0"
     inkscape:pagecheckerboard="0"
     inkscape:deskcolor="#d1d1d1"
     showgrid="false"
     inkscape:zoom="3.6875"
     inkscape:cx="14.237288"
     inkscape:cy="66.576271"
     inkscape:window-width="1362"
     inkscape:window-height="706"
     inkscape:window-x="0"
     inkscape:window-y="0"
     inkscape:window-maximized="1"
     inkscape:current-layer="svg46" /><g
     id="g519"
     transform="matrix(0.36954615,0,0,0.36954615,0.41564314,0.1328291)"><g
       id="g429"><path
         d="M 112,34 H 16 c -4.4183,0 -8,3.5817 -8,8 v 66 c 0,4.418 3.5817,8 8,8 h 96 c 4.418,0 8,-3.582 8,-8 V 42 c 0,-4.4183 -3.582,-8 -8,-8 z"
         fill="url(#paint0_linear_1_54)"
         id="path2"
         style="fill:url(#paint0_linear_1_54)" /><path
         d="M 112,12 H 16 c -4.4183,0 -8,4.2981 -8,9.6 v 76.8 c 0,5.302 3.5817,9.6 8,9.6 h 96 c 4.418,0 8,-4.298 8,-9.6 V 21.6 c 0,-5.3019 -3.582,-9.6 -8,-9.6 z"
         fill="#deddda"
         id="path4" /><path
         d="M 112,104 H 16 c -2.2091,0 -4,-2.189 -4,-4.8889 V 20.8889 C 12,18.1888 13.7909,16 16,16 h 96 c 2.209,0 4,2.1888 4,4.8889 V 99.1111 C 116,101.811 114.209,104 112,104 Z"
         fill="#241f31"
         id="path6" /><path
         opacity="0.05"
         d="m 16,100 h 96 V 37 H 16 Z"
         fill="url(#paint1_radial_1_54)"
         id="path8"
         style="fill:url(#paint1_radial_1_54)" /><path
         d="M 25.0061,25.3079 18,21.5 v 2.3641 l 4.8554,2.3148 V 26.25 L 18,28.8641 v 2.3641 l 7.0061,-4.1073 z"
         fill="#ffffff"
         id="path10" /><path
         d="m 27,31.8641 v 2 h 8 v -2 z"
         fill="#ffffff"
         id="path12" /><path
         d="m 66,16 h -4 v 92 h 4 z"
         fill="#deddda"
         id="path14" /><path
         d="M 118,62 V 58 H 64 v 4 z"
         fill="#deddda"
         id="path16" /><path
         d="M 78.0062,25.3079 71,21.5 v 2.3641 l 4.8554,2.3148 V 26.25 L 71,28.8641 v 2.3641 l 7.0062,-4.1073 z"
         fill="#ffffff"
         id="path18" /><path
         d="m 80,31.8641 v 2 h 8 v -2 z"
         fill="#ffffff"
         id="path20" /><path
         d="M 78.0062,72.3079 71,68.5 v 2.3641 l 4.8554,2.3148 V 73.25 L 71,75.8641 v 2.3641 l 7.0062,-4.1073 z"
         fill="#ffffff"
         id="path22" /><path
         d="m 80,78.8641 v 2 h 8 v -2 z"
         fill="#ffffff"
         id="path24" /></g></g><defs
     id="defs44"><linearGradient
       id="paint0_linear_1_54"
       x1="8"
       y1="70.638298"
       x2="120"
       y2="70.638298"
       gradientUnits="userSpaceOnUse"><stop
         stop-color="#77767B"
         id="stop26" /><stop
         offset="0.05"
         stop-color="#C0BFBC"
         id="stop28" /><stop
         offset="0.1"
         stop-color="#9A9996"
         id="stop30" /><stop
         offset="0.899999"
         stop-color="#9A9996"
         id="stop32" /><stop
         offset="0.95"
         stop-color="#C0BFBC"
         id="stop34" /><stop
         offset="1"
         stop-color="#77767B"
         id="stop36" /></linearGradient><radialGradient
       id="paint1_radial_1_54"
       cx="0"
       cy="0"
       r="1"
       gradientUnits="userSpaceOnUse"
       gradientTransform="matrix(226.909,0,0,58.1538,64,96.7692)"><stop
         stop-color="white"
         id="stop39" /><stop
         offset="1"
         stop-color="white"
         stop-opacity="0.0941176"
         id="stop41" /></radialGradient><radialGradient
       gradientUnits="userSpaceOnUse"
       gradientTransform="matrix(-5.1570247,6.4097751e-7,-3.3056172e-7,-1.3216783,266.04961,-12.111934)"
       r="44"
       fy="194.19048"
       fx="63.999996"
       cy="194.19048"
       cx="63.999996"
       id="radialGradient1030"
       xlink:href="#linearGradient1020" /><linearGradient
       id="linearGradient1020"><stop
         id="stop1016"
         offset="0"
         style="stop-color:#ffffff;stop-opacity:1;" /><stop
         id="stop1018"
         offset="1"
         style="stop-color:#ffffff;stop-opacity:0.09411765" /></linearGradient><linearGradient
       gradientUnits="userSpaceOnUse"
       y2="44"
       x2="464"
       y1="44"
       x1="48"
       id="linearGradient965"
       xlink:href="#linearGradient1001"
       gradientTransform="matrix(0.26923078,0,0,0.21808511,-4.92308,233.04255)" /><linearGradient
       id="linearGradient1001"><stop
         id="stop989"
         offset="0"
         style="stop-color:#77767b;stop-opacity:1" /><stop
         style="stop-color:#c0bfbc;stop-opacity:1"
         offset="0.05"
         id="stop991" /><stop
         id="stop993"
         offset="0.09999998"
         style="stop-color:#9a9996;stop-opacity:1" /><stop
         style="stop-color:#9a9996;stop-opacity:1"
         offset="0.89999938"
         id="stop995" /><stop
         id="stop997"
         offset="0.94999999"
         style="stop-color:#c0bfbc;stop-opacity:1" /><stop
         id="stop999"
         offset="1"
         style="stop-color:#77767b;stop-opacity:1" /></linearGradient><radialGradient
       gradientUnits="userSpaceOnUse"
       gradientTransform="matrix(-5.1570247,6.4097751e-7,-3.3056172e-7,-1.3216783,266.04961,-12.111934)"
       r="44"
       fy="194.19048"
       fx="63.999996"
       cy="194.19048"
       cx="63.999996"
       id="radialGradient1030-3"
       xlink:href="#linearGradient1020" /></defs></svg>
