<?xml version="1.0" encoding="UTF-8" standalone="no"?>
<svg
   width="48"
   height="48"
   viewBox="0 0 48 48"
   version="1.1"
   id="svg94"
   sodipodi:docname="transmission-qt.svg"
   inkscape:version="1.2.2 (b0a8486541, 2022-12-01)"
   xmlns:inkscape="http://www.inkscape.org/namespaces/inkscape"
   xmlns:sodipodi="http://sodipodi.sourceforge.net/DTD/sodipodi-0.dtd"
   xmlns:xlink="http://www.w3.org/1999/xlink"
   xmlns="http://www.w3.org/2000/svg"
   xmlns:svg="http://www.w3.org/2000/svg">
  <sodipodi:namedview
     id="namedview96"
     pagecolor="#ffffff"
     bordercolor="#000000"
     borderopacity="0.25"
     inkscape:showpageshadow="2"
     inkscape:pageopacity="0.0"
     inkscape:pagecheckerboard="0"
     inkscape:deskcolor="#d1d1d1"
     showgrid="false"
     inkscape:zoom="6.3308154"
     inkscape:cx="35.540446"
     inkscape:cy="37.988787"
     inkscape:window-width="1362"
     inkscape:window-height="706"
     inkscape:window-x="0"
     inkscape:window-y="28"
     inkscape:window-maximized="1"
     inkscape:current-layer="svg94" />
  <defs
     id="defs61">
    <linearGradient
       id="linear0"
       gradientUnits="userSpaceOnUse"
       x1="56"
       y1="-76"
       x2="56"
       y2="-156"
       gradientTransform="matrix(0.272002,0,0,0.184299,-1.352033,52.218826)">
      <stop
         offset="0"
         style="stop-color:rgb(40.784314%,40.392157%,41.960785%);stop-opacity:1;"
         id="stop2" />
      <stop
         offset="0.7625"
         style="stop-color:rgb(92.941177%,92.54902%,91.37255%);stop-opacity:1;"
         id="stop4" />
      <stop
         offset="1"
         style="stop-color:rgb(78.431374%,77.64706%,75.294119%);stop-opacity:1;"
         id="stop6" />
    </linearGradient>
    <linearGradient
       id="linear1"
       gradientUnits="userSpaceOnUse"
       x1="64"
       y1="59.999969"
       x2="448"
       y2="59.999969"
       gradientTransform="matrix(0.270851,0,0,0.272002,-5.188466,53.830627)">
      <stop
         offset="0"
         style="stop-color:rgb(40.784314%,40.392157%,41.960785%);stop-opacity:1;"
         id="stop9" />
      <stop
         offset="0.0416667"
         style="stop-color:rgb(78.431374%,77.64706%,75.294119%);stop-opacity:1;"
         id="stop11" />
      <stop
         offset="0.0833334"
         style="stop-color:rgb(58.039218%,57.647061%,56.470591%);stop-opacity:1;"
         id="stop13" />
      <stop
         offset="0.916667"
         style="stop-color:rgb(61.960787%,61.960787%,60.784316%);stop-opacity:1;"
         id="stop15" />
      <stop
         offset="0.958333"
         style="stop-color:rgb(78.431374%,77.64706%,75.294119%);stop-opacity:1;"
         id="stop17" />
      <stop
         offset="1"
         style="stop-color:rgb(40.784314%,40.392157%,41.960785%);stop-opacity:1;"
         id="stop19" />
    </linearGradient>
    <linearGradient
       id="linear2"
       gradientUnits="userSpaceOnUse"
       x1="255.75"
       y1="400"
       x2="255.75"
       y2="208"
       gradientTransform="matrix(0.272002,0,0,0.272002,-5.704064,-1.657791)">
      <stop
         offset="0"
         style="stop-color:rgb(9.803922%,8.627451%,13.333334%);stop-opacity:1;"
         id="stop22" />
      <stop
         offset="1"
         style="stop-color:rgb(58.039218%,57.647061%,56.470591%);stop-opacity:1;"
         id="stop24" />
    </linearGradient>
    <filter
       id="alpha"
       filterUnits="objectBoundingBox"
       x="0"
       y="0"
       width="1"
       height="1">
      <feColorMatrix
         type="matrix"
         in="SourceGraphic"
         values="0 0 0 0 1 0 0 0 0 1 0 0 0 0 1 0 0 0 1 0"
         id="feColorMatrix27" />
    </filter>
    <mask
       id="mask0">
      <g
         filter="url(#alpha)"
         id="g32">
        <rect
           x="0"
           y="0"
           width="128"
           height="128"
           style="fill:#000000;fill-opacity:0.15;stroke:none"
           id="rect30" />
      </g>
    </mask>
    <clipPath
       id="clip1">
      <rect
         x="0"
         y="0"
         width="192"
         height="152"
         id="rect35" />
    </clipPath>
    <g
       id="surface190"
       clip-path="url(#clip1)">
      <path
         style="fill:#000000;fill-opacity:1;fill-rule:nonzero;stroke:none"
         d="m 36.976562,79.621094 4.359376,4.355468 h 15.359374 v -4.355468 z m 50.183594,0 v 4.355468 h 15.222654 l 4.36328,-4.355468 z m 0,0"
         id="path38" />
    </g>
    <linearGradient
       id="linear3"
       gradientUnits="userSpaceOnUse"
       x1="197.49997"
       y1="-124.34376"
       x2="197.49997"
       y2="-212"
       gradientTransform="matrix(0.392892,0,0,0.395639,-36.651839,97.449851)">
      <stop
         offset="0"
         style="stop-color:rgb(87.843138%,10.588235%,14.117648%);stop-opacity:1;"
         id="stop41" />
      <stop
         offset="0.225"
         style="stop-color:rgb(67.450982%,11.372549%,18.039216%);stop-opacity:1;"
         id="stop43" />
      <stop
         offset="0.45"
         style="stop-color:rgb(87.843138%,10.588235%,14.117648%);stop-opacity:1;"
         id="stop45" />
      <stop
         offset="0.725"
         style="stop-color:rgb(96.470588%,38.039216%,31.764707%);stop-opacity:1;"
         id="stop47" />
      <stop
         offset="1"
         style="stop-color:rgb(96.470588%,38.039216%,31.764707%);stop-opacity:1;"
         id="stop49" />
    </linearGradient>
    <linearGradient
       id="linear4"
       gradientUnits="userSpaceOnUse"
       x1="255.99997"
       y1="-212.00005"
       x2="255.99997"
       y2="-93.481468"
       gradientTransform="matrix(0.333333,0,0,0.293762,-21.333342,70.277588)">
      <stop
         offset="0"
         style="stop-color:rgb(78.431374%,77.64706%,75.294119%);stop-opacity:1;"
         id="stop52" />
      <stop
         offset="0.16"
         style="stop-color:rgb(100%,100%,100%);stop-opacity:1;"
         id="stop54" />
      <stop
         offset="0.36"
         style="stop-color:rgb(100%,100%,100%);stop-opacity:1;"
         id="stop56" />
      <stop
         offset="1"
         style="stop-color:rgb(40.784314%,40.392157%,41.960785%);stop-opacity:1;"
         id="stop58" />
    </linearGradient>
  </defs>
  <g
     id="surface176"
     transform="matrix(0.36400882,0,0,0.36400882,1.2548465,0.67764198)">
    <path
       style="fill:url(#linear0);fill-rule:nonzero;stroke:none"
       d="M 7.351562,21.992188 H 20.40625 c 2.40625,0 4.355469,1.320312 4.355469,2.949218 v 11.796875 c 0,1.628907 -1.949219,2.949219 -4.355469,2.949219 H 7.351562 C 4.949219,39.6875 3,38.367188 3,36.738281 V 24.941406 C 3,23.3125 4.949219,21.992188 7.351562,21.992188 Z m 0,0"
       id="path63" />
    <path
       style="fill:url(#linear1);fill-rule:nonzero;stroke:none"
       d="M 20.113281,22.277344 H 108.1875 c 4.39844,0 7.96484,3.582031 7.96484,8 v 79.746096 c 0,4.41797 -3.5664,8 -7.96484,8 H 20.113281 c -4.402343,0 -7.96875,-3.58203 -7.96875,-8 V 30.277344 c 0,-4.417969 3.566407,-8 7.96875,-8 z m 0,0"
       id="path65" />
    <path
       style="fill:#d4d1cf;fill-opacity:1;fill-rule:nonzero;stroke:none"
       d="m 20.03125,13.949219 h 88.14844 c 4.40234,0 7.97265,3.582031 7.97265,8 v 84.097661 c 0,4.41796 -3.57031,8 -7.97265,8 H 20.03125 c -4.402344,0 -7.972656,-3.58204 -7.972656,-8 V 21.949219 c 0,-4.417969 3.570312,-8 7.972656,-8 z m 0,0"
       id="path67" />
    <path
       style="fill:#ffffff;fill-opacity:1;fill-rule:nonzero;stroke:none"
       d="m 20,22.277344 h 88.12891 V 106 H 20 Z m 0,0"
       id="path69" />
    <path
       style="fill:#000000;fill-opacity:0.0787401;fill-rule:nonzero;stroke:none"
       d="M 65.742188,19.234375 C 48.601562,19.183594 31.976562,20.792969 15.71875,23.585938 14.382812,23.8125 13.117188,24.261719 12,24.910156 v 32.105469 c 1.121094,0.652344 2.386719,1.117187 3.71875,1.386719 29.988281,6.023437 62.390625,5.578125 96.71484,0 1.33594,-0.21875 2.60157,-0.660156 3.71875,-1.308594 V 24.9375 c -1.11718,-0.648438 -2.38671,-1.105469 -3.71875,-1.351562 -16.035152,-2.96875 -31.566402,-4.308594 -46.691402,-4.351563 z m 0,0"
       id="path71" />
    <path
       style="fill:url(#linear2);fill-rule:nonzero;stroke:none"
       d="M 48.695312,37.511719 V 63.871094 H 28.976562 L 63.859375,98.4375 98.746094,63.871094 H 79.160156 V 37.511719 Z m 0,0"
       id="path73" />
    <use
       xlink:href="#surface190"
       transform="translate(-8,-16)"
       mask="url(#mask0)"
       id="use75" />
    <path
       style="fill:#a8a8a8;fill-opacity:1;fill-rule:nonzero;stroke:none"
       d="m 20.40625,30.984375 h 87.04297 v 2.175781 H 20.40625 Z m 0,0"
       id="path77" />
    <path
       style="fill:url(#linear3);fill-rule:nonzero;stroke:none"
       d="m 15.433594,13.574219 c 30.6875,-5.253907 62.679687,-6.332031 96.988286,0 4.40234,0.8125 8.08203,3.882812 8.08203,8.703125 V 39.6875 c 0,4.820312 -3.66016,7.988281 -8.08203,8.703125 C 78,53.96875 45.503906,54.414062 15.433594,48.390625 11.042969,47.511719 7.351562,44.507812 7.351562,39.6875 V 22.277344 c 0,-4.820313 3.667969,-7.949219 8.082032,-8.703125 z m 0,0"
       id="path79" />
    <path
       style="fill:url(#linear4);fill-rule:nonzero;stroke:none"
       d="M 48,8 H 80 V 66.753906 H 48 Z m 0,0"
       id="path81" />
    <path
       style="fill:#c7c5bf;fill-opacity:1;fill-rule:nonzero;stroke:none"
       d="m 28.976562,63.621094 2.179688,2.175781 h 16.789062 v -2.175781 z m 51.058594,0 v 2.175781 H 96.5625 l 2.183594,-2.175781 z m 0,0"
       id="path83" />
    <path
       style="fill:#59595c;fill-opacity:1;fill-rule:nonzero;stroke:none"
       d="m 37.816406,72.328125 h 52.222656 l -2.175781,2.175781 H 39.992188 Z m 0,0"
       id="path85" />
    <path
       style="fill:#3f3f47;fill-opacity:1;fill-rule:nonzero;stroke:none"
       d="M 44.34375,78.855469 H 83.511719 L 81.335938,81.03125 H 46.519531 Z m 0,0"
       id="path87" />
    <path
       style="fill:#171421;fill-opacity:1;fill-rule:nonzero;stroke:none"
       d="m 50.871094,85.382812 h 26.113281 l -2.175781,2.175782 H 53.046875 Z m 0,0"
       id="path89" />
    <path
       style="fill:#000000;fill-opacity:1;fill-rule:nonzero;stroke:none"
       d="m 57.402344,91.910156 h 12.996094 l -2.175782,2.175782 h -8.644531 z m 0,0"
       id="path91" />
  </g>
</svg>
