<?xml version="1.0" encoding="UTF-8" standalone="no"?>
<svg
   height="48"
   width="48"
   version="1.1"
   id="svg55"
   sodipodi:docname="uget.svg"
   inkscape:version="1.2.2 (b0a8486541, 2022-12-01)"
   xmlns:inkscape="http://www.inkscape.org/namespaces/inkscape"
   xmlns:sodipodi="http://sodipodi.sourceforge.net/DTD/sodipodi-0.dtd"
   xmlns:xlink="http://www.w3.org/1999/xlink"
   xmlns="http://www.w3.org/2000/svg"
   xmlns:svg="http://www.w3.org/2000/svg">
  <defs
     id="defs59">
    <linearGradient
       inkscape:collect="always"
       xlink:href="#h"
       id="linearGradient288"
       gradientUnits="userSpaceOnUse"
       gradientTransform="matrix(1.0238095,0,0,1.0119048,-1.142857,-98.071429)"
       x1="32.251034"
       y1="6.1317081"
       x2="32.251034"
       y2="90.238609" />
    <linearGradient
       inkscape:collect="always"
       xlink:href="#h"
       id="linearGradient290"
       gradientUnits="userSpaceOnUse"
       gradientTransform="matrix(1.0238095,0,0,1.0119048,-1.142857,-98.071429)"
       x1="32.251034"
       y1="6.1317081"
       x2="32.251034"
       y2="90.238609" />
    <linearGradient
       inkscape:collect="always"
       xlink:href="#h"
       id="linearGradient292"
       gradientUnits="userSpaceOnUse"
       gradientTransform="matrix(1.0238095,0,0,1.0119048,-1.142857,-98.071429)"
       x1="32.251034"
       y1="6.1317081"
       x2="32.251034"
       y2="90.238609" />
    <linearGradient
       inkscape:collect="always"
       xlink:href="#h"
       id="linearGradient294"
       gradientUnits="userSpaceOnUse"
       gradientTransform="matrix(1.0238095,0,0,1.0119048,-1.142857,-98.071429)"
       x1="32.251034"
       y1="6.1317081"
       x2="32.251034"
       y2="90.238609" />
  </defs>
  <sodipodi:namedview
     id="namedview57"
     pagecolor="#ffffff"
     bordercolor="#000000"
     borderopacity="0.25"
     inkscape:showpageshadow="2"
     inkscape:pageopacity="0.0"
     inkscape:pagecheckerboard="0"
     inkscape:deskcolor="#d1d1d1"
     showgrid="false"
     inkscape:zoom="2.984375"
     inkscape:cx="43.057592"
     inkscape:cy="62.492147"
     inkscape:window-width="1362"
     inkscape:window-height="706"
     inkscape:window-x="0"
     inkscape:window-y="0"
     inkscape:window-maximized="1"
     inkscape:current-layer="svg55" />
  <linearGradient
     id="a">
    <stop
       offset="0"
       stop-color="#fefefe"
       id="stop2" />
    <stop
       offset="1"
       stop-color="#fefefe"
       stop-opacity="0"
       id="stop4" />
  </linearGradient>
  <linearGradient
     id="b"
     gradientUnits="userSpaceOnUse"
     x1="36.357143"
     x2="36.357143"
     xlink:href="#a"
     y1="6"
     y2="63.893143"
     gradientTransform="matrix(0.48400029,0,0,0.48400029,0.94076604,-0.15173345)" />
  <filter
     id="c"
     height="1.3915758"
     width="1.3915758"
     x="-0.19578789"
     y="-0.19578789">
    <feGaussianBlur
       stdDeviation="5.28"
       id="feGaussianBlur8" />
  </filter>
  <linearGradient
     id="d"
     gradientUnits="userSpaceOnUse"
     x1="48"
     x2="48"
     xlink:href="#a"
     y1="20.220806"
     y2="138.66119" />
  <radialGradient
     id="e"
     cx="48"
     cy="90.171875"
     gradientTransform="matrix(0.56013978,0,0,0.48201963,-2.7139303,-0.05632151)"
     gradientUnits="userSpaceOnUse"
     r="42"
     xlink:href="#a" />
  <clipPath
     id="f">
    <rect
       height="84"
       rx="6"
       width="84"
       x="6"
       y="6"
       id="rect13" />
  </clipPath>
  <linearGradient
     id="g"
     gradientUnits="userSpaceOnUse"
     x1="48"
     x2="48"
     y1="90"
     y2="5.9877172"
     gradientTransform="matrix(0.48400029,0,0,0.48400029,0.94076604,-0.15173345)">
    <stop
       offset="0"
       stop-color="#50a925"
       id="stop16" />
    <stop
       offset="1"
       stop-color="#88cd5a"
       id="stop18" />
  </linearGradient>
  <linearGradient
     id="h"
     gradientTransform="matrix(1.0058652,0,0,0.994169,100,0)"
     gradientUnits="userSpaceOnUse"
     x1="45.447727"
     x2="45.447727"
     y1="92.539597"
     y2="7.0165401">
    <stop
       offset="0"
       id="stop21" />
    <stop
       offset="1"
       stop-opacity=".588235"
       id="stop23" />
  </linearGradient>
  <linearGradient
     id="i"
     gradientTransform="matrix(1.0238095,0,0,1.0119048,-1.142857,-98.071429)"
     gradientUnits="userSpaceOnUse"
     x1="32.251034"
     x2="32.251034"
     xlink:href="#h"
     y1="6.1317081"
     y2="90.238609" />
  <linearGradient
     id="j"
     gradientTransform="matrix(0.48400029,0,0,0.48400029,0.94076604,-46.796295)"
     gradientUnits="userSpaceOnUse"
     x1="32.251034"
     x2="32.251034"
     xlink:href="#h"
     y1="6.1317081"
     y2="90.238609" />
  <linearGradient
     id="k"
     gradientTransform="matrix(0.48683905,0,0,0.48117808,49.340795,-0.15173345)"
     gradientUnits="userSpaceOnUse"
     spreadMethod="pad"
     x1="49.924416"
     x2="51.075584"
     y1="20"
     y2="72">
    <stop
       offset="0"
       stop-color="#1e6318"
       id="stop28" />
    <stop
       offset="1"
       stop-color="#288521"
       id="stop30" />
  </linearGradient>
  <g
     fill="url(#i)"
     id="g41"
     style="fill:url(#i)"
     transform="matrix(0.48400029,0,0,0.48400029,0.94076604,-0.15173345)">
    <path
       d="m 12,-95.03125 c -5.5110903,0 -10.03125,4.52016 -10.03125,10.03125 v 71 c 0,5.5110902 4.5201598,10.03125 10.03125,10.03125 h 72 c 5.51109,0 10.03125,-4.5201597 10.03125,-10.03125 v -71 c 0,-5.51109 -4.52016,-10.03125 -10.03125,-10.03125 z"
       opacity="0.08"
       transform="scale(1,-1)"
       id="path33"
       style="fill:url(#linearGradient288)" />
    <path
       d="m 12,-94.03125 c -4.971633,0 -9.03125,4.059617 -9.03125,9.03125 v 71 c 0,4.9716329 4.0596171,9.03125 9.03125,9.03125 h 72 c 4.971633,0 9.03125,-4.059617 9.03125,-9.03125 v -71 c 0,-4.971633 -4.059617,-9.03125 -9.03125,-9.03125 z"
       opacity="0.1"
       transform="scale(1,-1)"
       id="path35"
       style="fill:url(#linearGradient290)" />
    <path
       d="m 12,-93 c -4.4091333,0 -8,3.590867 -8,8 v 71 c 0,4.4091333 3.5908667,8 8,8 h 72 c 4.409133,0 8,-3.5908667 8,-8 v -71 c 0,-4.409133 -3.590867,-8 -8,-8 z"
       opacity="0.2"
       transform="scale(1,-1)"
       id="path37"
       style="fill:url(#linearGradient292)" />
    <rect
       height="85"
       opacity="0.3"
       rx="7"
       transform="scale(1,-1)"
       width="86"
       x="5"
       y="-92"
       id="rect39"
       style="fill:url(#linearGradient294)" />
  </g>
  <rect
     fill="url(#j)"
     height="40.656025"
     opacity="0.45"
     rx="2.9040017"
     transform="scale(1,-1)"
     width="40.656025"
     x="3.8447678"
     y="-43.892292"
     id="rect43"
     style="fill:url(#j);stroke-width:0.484" />
  <rect
     fill="url(#g)"
     height="40.656025"
     rx="2.9040017"
     width="40.656025"
     x="3.8447678"
     y="2.7522683"
     id="rect45"
     style="fill:url(#g);stroke-width:0.484" />
  <path
     d="m 6.7487697,2.7522683 c -1.6088171,0 -2.9040019,1.2951848 -2.9040019,2.9040017 v 0.9680008 32.9120202 0.968 c 0,0.162005 0.020013,0.314939 0.045375,0.468875 0.023571,0.143069 0.046967,0.288907 0.09075,0.423501 0.00478,0.0147 0.010112,0.03078 0.015125,0.04537 0.047851,0.139281 0.1136821,0.264967 0.1815001,0.39325 0.069983,0.132377 0.1527583,0.259238 0.2420001,0.378125 0.089242,0.118888 0.180908,0.229161 0.2873752,0.33275 0.2129345,0.20718 0.4563687,0.394231 0.7260004,0.529376 0.1348159,0.06757 0.2775612,0.119522 0.4235005,0.166375 -0.124002,-0.04851 -0.2355684,-0.114356 -0.3478754,-0.1815 -0.00359,-0.0021 -0.011551,0.0022 -0.015125,0 -0.015456,-0.0093 -0.03015,-0.02058 -0.045375,-0.03025 -0.058271,-0.03712 -0.111815,-0.07914 -0.1663751,-0.121 -0.051388,-0.03911 -0.103228,-0.07798 -0.15125,-0.121001 C 5.0442754,42.710034 4.962223,42.621 4.8883934,42.531042 4.8363252,42.467999 4.7826907,42.402644 4.7371433,42.334417 c -0.012143,-0.01858 -0.018608,-0.04156 -0.03025,-0.0605 -0.031345,-0.04987 -0.06303,-0.09899 -0.09075,-0.15125 -0.048888,-0.09424 -0.099547,-0.201199 -0.136125,-0.3025 -0.00385,-0.01056 -0.011417,-0.01963 -0.015125,-0.03025 -0.015403,-0.0445 -0.017329,-0.09043 -0.03025,-0.136125 -0.014681,-0.0516 -0.034068,-0.09827 -0.045375,-0.15125 -0.035273,-0.165292 -0.0605,-0.337932 -0.0605,-0.514251 v -0.968 V 7.1082711 6.1402705 c 0,-1.3464154 1.073586,-2.4200016 2.4200016,-2.4200016 H 7.7167703 40.62879 41.596791 c 1.346415,0 2.420001,1.0735862 2.420001,2.4200016 v 0.9680006 32.9120199 0.968 c 0,0.176319 -0.02523,0.348959 -0.0605,0.514251 -0.02137,0.100136 -0.04278,0.192466 -0.07562,0.287375 -0.0037,0.01062 -0.01128,0.01969 -0.01513,0.03025 -0.03037,0.08409 -0.06698,0.177845 -0.105875,0.257125 -0.02013,0.04008 -0.03825,0.08226 -0.0605,0.121 -0.02643,0.04705 -0.06136,0.09116 -0.09075,0.136125 -0.04555,0.06823 -0.09918,0.133582 -0.15125,0.196625 -0.0693,0.08443 -0.146721,0.167947 -0.226875,0.242 -0.0054,0.0049 -0.0097,0.01024 -0.01512,0.01513 -0.06698,0.06077 -0.137984,0.113468 -0.21175,0.166376 -0.04964,0.0354 -0.09889,0.07423 -0.151251,0.105875 -0.0036,0.0022 -0.01154,-0.0021 -0.01512,0 -0.112307,0.06714 -0.223873,0.132992 -0.347875,0.1815 0.145939,-0.04685 0.288685,-0.0988 0.4235,-0.166375 0.269632,-0.135145 0.513066,-0.322196 0.726001,-0.529376 0.106467,-0.103589 0.198133,-0.213862 0.287375,-0.33275 0.08924,-0.118887 0.172018,-0.245748 0.242,-0.378125 0.06782,-0.128283 0.13365,-0.253969 0.1815,-0.39325 0.005,-0.0149 0.01032,-0.03037 0.01512,-0.04537 0.04378,-0.134594 0.06718,-0.280432 0.09075,-0.423501 0.02536,-0.153936 0.04537,-0.30687 0.04537,-0.468875 v -0.968 V 6.6242708 5.65627 c 0,-1.6088169 -1.295184,-2.9040017 -2.904001,-2.9040017 z"
     fill="url(#b)"
     opacity="0.5"
     id="path47"
     style="fill:url(#b);stroke-width:0.484" />
  <path
     d="m 6.7487697,43.408293 c -1.6088171,0 -2.9040019,-1.295185 -2.9040019,-2.904002 v -0.968 V 6.6242708 5.65627 c 0,-0.162005 0.020013,-0.314939 0.045375,-0.4688752 0.023571,-0.1430686 0.046967,-0.2889071 0.09075,-0.4235003 0.00478,-0.014704 0.010112,-0.030782 0.015125,-0.045375 C 4.0438686,4.5792382 4.1097,4.4535525 4.177518,4.3252692 4.2475005,4.1928918 4.3302763,4.0660314 4.4195181,3.947144 4.50876,3.8282566 4.6004261,3.7179834 4.7068933,3.6143938 4.9198278,3.4072146 5.163262,3.220163 5.4328937,3.0850185 5.5677096,3.0174462 5.7104549,2.9654961 5.8563942,2.9186434 5.7323922,2.9671509 5.6208258,3.0329991 5.5085188,3.1001435 c -0.00359,0.00213 -0.011551,-0.00218 -0.015125,0 -0.015456,0.00934 -0.03015,0.020575 -0.045375,0.03025 -0.058271,0.037123 -0.111815,0.07914 -0.1663751,0.1210001 -0.051388,0.039107 -0.103228,0.077978 -0.15125,0.1210001 -0.086118,0.078134 -0.1681706,0.1671679 -0.2420002,0.2571251 -0.052068,0.063044 -0.1057027,0.128398 -0.1512501,0.1966251 -0.012143,0.018576 -0.018608,0.041561 -0.03025,0.0605 -0.031345,0.049867 -0.06303,0.098986 -0.09075,0.1512501 -0.048888,0.094238 -0.099547,0.2011994 -0.136125,0.3025001 -0.00385,0.010556 -0.011417,0.019626 -0.015125,0.03025 -0.015403,0.044504 -0.017329,0.090426 -0.03025,0.136125 -0.014681,0.051603 -0.034068,0.098267 -0.045375,0.1512501 -0.035273,0.1652919 -0.0605,0.3379315 -0.0605,0.5142503 v 0.968001 32.9120195 0.968001 c 0,1.346415 1.073586,2.420001 2.4200016,2.420001 H 7.7167703 40.62879 41.596791 c 1.346415,0 2.420001,-1.073586 2.420001,-2.420001 V 39.05229 6.1402705 5.1722697 c 0,-0.1763188 -0.02523,-0.3489584 -0.0605,-0.5142503 -0.02137,-0.1001362 -0.04278,-0.1924666 -0.07562,-0.2873751 -0.0037,-0.010624 -0.01128,-0.019694 -0.01513,-0.03025 -0.03037,-0.08409 -0.06698,-0.1778454 -0.105875,-0.2571251 -0.02013,-0.040075 -0.03825,-0.082258 -0.0605,-0.1210001 -0.02643,-0.04705 -0.06136,-0.091161 -0.09075,-0.1361251 -0.04555,-0.068227 -0.09918,-0.1335816 -0.15125,-0.1966251 -0.0693,-0.084434 -0.146721,-0.1679471 -0.226875,-0.2420001 -0.0054,-0.00494 -0.0097,-0.010237 -0.01512,-0.015125 -0.06698,-0.060769 -0.137984,-0.1134671 -0.21175,-0.1663751 -0.04964,-0.035405 -0.09889,-0.074228 -0.151251,-0.1058751 -0.0036,-0.00218 -0.01154,0.00213 -0.01512,0 -0.112307,-0.067144 -0.223873,-0.1329926 -0.347875,-0.1815001 0.145939,0.046851 0.288685,0.098803 0.4235,0.1663751 0.269632,0.1351445 0.513066,0.3221961 0.726001,0.5293753 0.106467,0.1035896 0.198133,0.2138628 0.287375,0.3327502 0.08924,0.1188874 0.172018,0.2457478 0.242,0.3781252 0.06782,0.1282833 0.13365,0.253969 0.1815,0.3932503 0.005,0.014898 0.01032,0.030366 0.01512,0.045375 0.04378,0.1345932 0.06718,0.2804317 0.09075,0.4235003 0.02536,0.1539362 0.04537,0.3068702 0.04537,0.4688752 v 0.9680008 32.9120201 0.968 c 0,1.608817 -1.295184,2.904002 -2.904001,2.904002 z"
     fill="url(#e)"
     opacity="0.2"
     id="path49"
     style="fill:url(#e);stroke-width:0.484" />
  <path
     d="m 19.054194,36.699685 c -1.119106,-0.456553 -3.630002,-2.864895 -3.630002,-3.481739 0,-0.2299 -1.268836,-0.418002 -2.819634,-0.418002 -2.321533,0 -3.0055391,-0.197888 -3.8720023,-1.120194 C 7.7619101,30.646545 7.6801871,30.063968 7.6801871,24.177746 v -6.381811 h 2.4200019 2.420001 v 5.082004 5.082003 h 1.210001 1.21 l 0.01713,-7.139005 c 0.01849,-7.694351 0.214887,-8.467904 2.631723,-10.365355 1.394932,-1.0951521 1.76815,-1.1341335 12.221007,-1.2763908 L 40.592207,9.032452 v 4.139742 4.139741 h -4.356003 -4.356002 v -2.904002 -2.904001 h -4.356003 -4.356003 v 6.050003 6.050004 H 20.98475 18.801304 l 4.174914,5.445003 c 2.296199,2.994752 4.346066,5.445004 4.555256,5.445004 0.42803,0 8.199836,-9.962043 8.212555,-10.527007 0.0045,-0.19965 -0.863026,-0.363 -1.927826,-0.363 -1.936001,0 -1.936001,0 -1.936001,-1.936001 v -1.936001 h 4.392583 4.392588 l -0.157585,6.738499 c -0.149987,6.413846 -0.215879,6.800823 -1.367582,8.031994 -2.280125,2.437455 -3.235406,2.655879 -11.470971,2.622836 -4.205871,-0.01689 -8.082641,-0.208386 -8.615041,-0.425581 z"
     fill="url(#k)"
     stroke="#000000"
     stroke-linecap="round"
     stroke-width="0.1452"
     id="path51"
     style="fill:url(#k)" />
  <rect
     height="66"
     rx="12"
     style="opacity:0.1;fill:url(#d);stroke:#fefefe;stroke-width:0.5;stroke-linecap:round;filter:url(#c)"
     width="66"
     x="15"
     y="15"
     clip-path="url(#f)"
     id="rect53"
     transform="matrix(0.48400029,0,0,0.48400029,0.94076604,-0.15173345)" />
</svg>
