<?xml version="1.0" encoding="UTF-8" standalone="no"?>
<svg
   version="1.1"
   viewBox="0 0 48 48"
   id="svg24"
   sodipodi:docname="webcamoid.svg"
   width="48"
   height="48"
   inkscape:version="1.2.2 (b0a8486541, 2022-12-01)"
   xmlns:inkscape="http://www.inkscape.org/namespaces/inkscape"
   xmlns:sodipodi="http://sodipodi.sourceforge.net/DTD/sodipodi-0.dtd"
   xmlns="http://www.w3.org/2000/svg"
   xmlns:svg="http://www.w3.org/2000/svg"
   xmlns:rdf="http://www.w3.org/1999/02/22-rdf-syntax-ns#"
   xmlns:cc="http://creativecommons.org/ns#"
   xmlns:dc="http://purl.org/dc/elements/1.1/">
  <sodipodi:namedview
     id="namedview26"
     pagecolor="#ffffff"
     bordercolor="#000000"
     borderopacity="0.25"
     inkscape:showpageshadow="2"
     inkscape:pageopacity="0.0"
     inkscape:pagecheckerboard="0"
     inkscape:deskcolor="#d1d1d1"
     showgrid="false"
     inkscape:zoom="1.5827039"
     inkscape:cx="12.004773"
     inkscape:cy="107.09521"
     inkscape:window-width="1362"
     inkscape:window-height="706"
     inkscape:window-x="0"
     inkscape:window-y="28"
     inkscape:window-maximized="1"
     inkscape:current-layer="svg24" />
  <defs
     id="defs12">
    <filter
       id="b"
       color-interpolation-filters="sRGB"
       x="-0.14745117"
       y="-0.1127006"
       width="1.2949023"
       height="1.2254012">
      <feGaussianBlur
         result="fbSourceGraphic"
         stdDeviation="2 2"
         id="feGaussianBlur2" />
      <feColorMatrix
         in="fbSourceGraphic"
         result="fbSourceGraphicAlpha"
         values="0 0 0 -1 0 0 0 0 -1 0 0 0 0 -1 0 0 0 0 1 0"
         id="feColorMatrix4" />
      <feGaussianBlur
         in="fbSourceGraphic"
         result="blur"
         stdDeviation="2 2"
         id="feGaussianBlur6" />
    </filter>
    <filter
       id="a"
       color-interpolation-filters="sRGB"
       x="-0.044388958"
       y="-0.047985888"
       width="1.0887779"
       height="1.0959718">
      <feGaussianBlur
         result="blur"
         stdDeviation="2 2"
         id="feGaussianBlur9" />
    </filter>
  </defs>
  <metadata
     id="metadata14">
    <rdf:RDF>
      <cc:Work
         rdf:about="">
        <dc:format>image/svg+xml</dc:format>
        <dc:type
           rdf:resource="http://purl.org/dc/dcmitype/StillImage" />
      </cc:Work>
    </rdf:RDF>
  </metadata>
  <g
     transform="matrix(0.36584384,0,0,0.36584384,0.64843861,-337.8838)"
     id="g22">
    <path
       d="m 62.877,938.38 c -21.983,0.0346 -41.74,19.116 -42.361,41.121 -1.0068,16.032 7.8778,32.089 21.914,39.867 -10.774,6.4243 -22.418,11.5 -32.488,19.016 18.793,-0.3715 37.35,-5.4532 56.052,-6.2799 17.374,1.7969 34.622,5.5167 52.083,5.985 -10.035,-7.4597 -21.759,-12.432 -32.426,-18.797 19.075,-10.323 27.359,-35.91 17.98,-55.445 -6.9724,-15.694 -23.599,-26.077 -40.754,-25.467 z m 9.5801,22.42 c -13.352,5.011 -18.36,23.446 -9.3906,34.514 2.2939,3.37 6.8819,6.3857 9.8828,7.5195 -14.664,-3.8609 -20.734,-23.931 -10.545,-35.203 2.7889,-3.3616 6.5834,-5.8855 10.777,-7.1152 l -0.72461,0.28515 z m 9.4414,9.1445 c 10.418,-0.0764 15.213,14.721 6.916,20.838 -7.863,7.2572 -21.873,-1.0355 -19.145,-11.436 1.0653,-5.61 6.5275,-9.8064 12.229,-9.4024 z"
       filter="url(#a)"
       id="path16" />
    <path
       d="m 63.973,940.36 c -22.927,0 -41.514,18.508 -41.514,41.339 0,22.831 18.586,41.339 41.514,41.339 22.928,0 41.514,-18.508 41.514,-41.339 0,-22.831 -18.586,-41.339 -41.514,-41.339 z m 15.568,17.225 c 13.374,0 24.216,10.796 24.216,24.114 0,13.318 -10.842,24.114 -24.216,24.114 -13.374,0 -24.216,-10.796 -24.216,-24.114 0,-13.318 10.842,-24.114 24.216,-24.114 z m 1.7297,3.4449 c -11.464,0 -20.757,9.254 -20.757,20.669 0,11.415 9.2931,20.669 20.757,20.669 11.4639,0 20.757,-9.254 20.757,-20.669 0,-11.415 -9.2931,-20.669 -20.757,-20.669 z m 0,6.8898 c 7.6424,0 13.838,6.1694 13.838,13.78 0,7.6103 -6.1954,13.78 -13.838,13.78 -7.6426,0 -13.838,-6.1694 -13.838,-13.78 0,-7.6103 6.1954,-13.78 13.838,-13.78 z m 3.7838,53.342 c -6.2893,3.3308 -13.461,5.2212 -21.081,5.2212 -7.5689,0 -14.687,-1.8784 -20.946,-5.1673 l -27.027,15.044 48,-6.5399 48,6.2708 -26.946,-14.829 z"
       fill="#7f7f7f"
       id="path18" />
    <path
       d="m 62.963,944.38 c -22.35,-0.22321 -41.075,23.084 -35.824,44.898 3.9358,21.18 28.519,35.544 48.943,27.816 5.2697,-1.6213 12.398,-6.3814 14.668,-9.539 -13.742,6.0429 -31.491,-0.5566 -37.197,-14.641 -6.6536,-14.87 2.1782,-34.413 18.268,-38.293 6.4252,-1.7935 13.466,-1.1924 19.533,1.5586 -7.2501,-7.6673 -17.805,-12.215 -28.391,-11.801 z M 36.5,1029.534 c 2.3177,-0.8758 14.001,-0.7415 9.916,-2.293 -3.7757,-2.9251 -6.2498,0.6179 -9.916,2.293 z m 48.146,-3.5977 c -1.2855,0.9332 -7.0657,2.0874 -2.8293,2.1868 3.3317,0.2067 13.616,2.6156 6.259,-0.6418 -1.1151,-0.4202 -2.2925,-1.4426 -3.4297,-1.545 z"
       fill="#ffffff"
       filter="url(#b)"
       id="path20" />
  </g>
</svg>
