<?xml version="1.0" encoding="UTF-8" standalone="no"?>
<!-- Created with Inkscape (http://www.inkscape.org/) -->

<svg
   width="322.29025"
   height="123.39581"
   viewBox="0 0 322.29025 123.39582"
   version="1.1"
   id="svg5"
   inkscape:version="1.2.2 (b0a8486541, 2022-12-01)"
   sodipodi:docname="5logo.svg"
   xmlns:inkscape="http://www.inkscape.org/namespaces/inkscape"
   xmlns:sodipodi="http://sodipodi.sourceforge.net/DTD/sodipodi-0.dtd"
   xmlns="http://www.w3.org/2000/svg"
   xmlns:svg="http://www.w3.org/2000/svg">
  <sodipodi:namedview
     id="namedview7"
     pagecolor="#ffffff"
     bordercolor="#000000"
     borderopacity="0.25"
     inkscape:showpageshadow="2"
     inkscape:pageopacity="0.0"
     inkscape:pagecheckerboard="0"
     inkscape:deskcolor="#d1d1d1"
     inkscape:document-units="px"
     showgrid="false"
     inkscape:zoom="1"
     inkscape:cx="460"
     inkscape:cy="171.5"
     inkscape:window-width="1366"
     inkscape:window-height="682"
     inkscape:window-x="0"
     inkscape:window-y="28"
     inkscape:window-maximized="1"
     inkscape:current-layer="layer1" />
  <defs
     id="defs2">
    <filter
       inkscape:collect="always"
       style="color-interpolation-filters:sRGB"
       id="filter1322"
       x="-0.086998686"
       y="-0.080450311"
       width="1.1739974"
       height="1.1609006">
      <feGaussianBlur
         inkscape:collect="always"
         stdDeviation="5.0721468"
         id="feGaussianBlur1324" />
    </filter>
  </defs>
  <g
     inkscape:label="Capa 1"
     inkscape:groupmode="layer"
     id="layer1"
     transform="translate(-51.532666,-209.50616)">
    <g
       id="g766"
       transform="matrix(0.70247362,0,0,0.70247362,182.17126,209.99377)"
       style="opacity:1;mix-blend-mode:normal;filter:url(#filter1322)"
       inkscape:export-filename="Patchy/logo.svg"
       inkscape:export-xdpi="124.58738"
       inkscape:export-ydpi="124.58738">
      <path
         style="fill:#00ccff"
         d="m -85.251559,109.07301 16.49931,21.36947 -47.329601,32.34923 62.209791,-26.22996 z"
         id="path742" />
      <path
         style="fill:#aad400"
         d="m -113.77132,105.68942 3.30575,26.79466 -57.20819,3.71328 66.89263,9.13496 z"
         id="path744" />
      <path
         style="fill:#ff0000"
         d="m -118.3184,95.918794 -20.33711,17.756246 -35.14073,-45.295625 29.92866,60.517315 z"
         id="path746" />
      <path
         style="fill:#ff6600"
         d="m -115.58544,73.514062 -26.90943,-2.182814 7.93597,-56.776624 -22.47763,63.661812 z"
         id="path748" />
      <path
         style="fill:#cb8900"
         d="M -92.778257,71.805886 -114.73858,56.101534 -78.746969,11.479022 -130.75122,54.532802 Z"
         id="path750" />
      <path
         style="fill:#ffcc00"
         d="M -92.778257,71.805886 -114.73858,56.101534 -78.746969,11.479022 -130.75122,54.532802 Z"
         id="path752" />
      <path
         style="fill:#0044aa"
         d="m -82.943649,102.9632 23.39915,-13.467089 25.67167,51.259439 -17.60179,-65.178584 z"
         id="path754" />
      <ellipse
         style="fill:#37c871"
         id="ellipse756"
         cx="-101.04617"
         cy="92.269882"
         rx="10.878782"
         ry="10.905448" />
    </g>
    <path
       style="fill:#00ccff;stroke-width:0.702472"
       d="m 121.31314,288.06269 11.59034,15.01148 -33.247812,22.72448 43.700752,-18.42586 z"
       id="path236" />
    <path
       style="fill:#aad400;stroke-width:0.702472"
       d="m 101.27876,285.68581 2.3222,18.82252 -40.187234,2.60848 46.990294,6.41708 z"
       id="path292" />
    <path
       style="fill:#ff0000;stroke-width:0.702472"
       d="m 98.084563,278.82219 -14.286289,12.47329 -24.685432,-31.81897 21.024089,42.5118 z"
       id="path348" />
    <path
       style="fill:#ff6600;stroke-width:0.702472"
       d="m 100.00439,263.08346 -18.903161,-1.53337 5.574807,-39.88408 -15.789942,44.72075 z"
       id="path350" />
    <path
       style="fill:#cb8900;stroke-width:0.702472"
       d="m 116.02583,261.88351 -15.42655,-11.03189 25.28317,-31.34614 -36.531617,30.24415 z"
       id="path352" />
    <path
       style="fill:#ffcc00;stroke-width:0.702472"
       d="m 116.02583,261.88351 -15.42655,-11.03189 25.28317,-31.34614 -36.531617,30.24415 z"
       id="path453" />
    <path
       style="fill:#5a2ca0;stroke-width:0.702472"
       d="m 122.8462,274.62344 2.41726,-18.81058 39.57913,7.43719 -43.93192,-17.86769 z"
       id="path530" />
    <path
       style="fill:#0044aa;stroke-width:0.702472"
       d="m 122.93439,283.7707 16.43729,-9.46027 18.03367,36.0084 -12.36479,-45.78623 z"
       id="path532" />
    <ellipse
       style="fill:#37c871;stroke-width:0.702472"
       id="path586"
       cx="110.21785"
       cy="276.25894"
       rx="7.6420574"
       ry="7.6607895" />
    <g
       id="g719"
       transform="matrix(0.70247362,0,0,0.70285659,47.757225,208.15073)">
      <path
         style="fill:#1c241f"
         d="m 105.42437,111.45184 16.49931,21.36947 -47.329614,32.34923 62.209804,-26.22996 z"
         id="path692" />
      <path
         style="fill:#1c241f"
         d="m 76.904596,108.06825 3.30575,26.79466 -57.20818,3.71328 66.89262,9.13496 z"
         id="path694" />
      <path
         style="fill:#1c241f"
         d="m 72.357516,98.297625 -20.3371,17.756245 -35.14073,-45.295624 29.92865,60.517314 z"
         id="path696" />
      <path
         style="fill:#1c241f"
         d="m 75.090486,75.892893 -26.90944,-2.182814 7.93598,-56.776624 -22.47763,63.661812 z"
         id="path698" />
      <path
         style="fill:#1c241f"
         d="M 97.897666,74.184717 75.937346,58.480365 111.92896,13.857853 59.924706,56.911633 Z"
         id="path700" />
      <path
         style="fill:#1c241f"
         d="M 97.897666,74.184717 75.937346,58.480365 111.92896,13.857853 59.924706,56.911633 Z"
         id="path702" />
      <path
         style="fill:#1c241f;stroke-width:0.895873"
         d="m 107.42354,91.904508 2.95079,-25.062315 48.31479,9.908961 -53.62831,-23.80606 z"
         id="path704" />
      <path
         style="fill:#1c241f"
         d="M 107.73228,105.34203 131.13143,91.874942 156.8031,143.13438 139.20131,77.955797 Z"
         id="path706" />
      <ellipse
         style="fill:#1c241f"
         id="ellipse708"
         cx="89.629753"
         cy="94.648712"
         rx="10.878782"
         ry="10.905448" />
    </g>
    <text
       xml:space="preserve"
       style="font-size:51.6045px;font-family:Cabin;-inkscape-font-specification:Cabin;fill:#ffffff;fill-opacity:1;stroke:none;stroke-width:0.806318;stroke-opacity:1"
       x="174.02251"
       y="262.04306"
       id="text339"
       transform="scale(1.0021191,0.99788538)"><tspan
         sodipodi:role="line"
         id="tspan337"
         x="174.02251"
         y="262.04306"
         style="font-style:normal;font-variant:normal;font-weight:normal;font-stretch:normal;font-family:Roboto;-inkscape-font-specification:Roboto;fill:#ffffff;fill-opacity:1;stroke:none;stroke-width:0.806318;stroke-opacity:1">Cuerd<tspan
   style="font-style:normal;font-variant:normal;font-weight:300;font-stretch:normal;font-family:Roboto;-inkscape-font-specification:'Roboto Light';fill:#ffffff;fill-opacity:1;stroke:none;stroke-width:0.806318;stroke-opacity:1"
   id="tspan391">OS</tspan></tspan></text>
    <text
       xml:space="preserve"
       style="font-size:51.6045px;font-family:Cabin;-inkscape-font-specification:Cabin;fill:#ff9d24;fill-opacity:1;stroke:#000000;stroke-width:0.806318"
       x="174.92087"
       y="304.75031"
       id="text1108"
       transform="scale(1.0021191,0.99788538)"><tspan
         sodipodi:role="line"
         id="tspan1106"
         x="174.92087"
         y="304.75031"
         style="font-style:normal;font-variant:normal;font-weight:normal;font-stretch:normal;font-family:Quicksand;-inkscape-font-specification:Quicksand;fill:#ff9d24;fill-opacity:1;stroke:none;stroke-width:0.806318">Patchy</tspan></text>
  </g>
</svg>
